<svg width="32" height="33" viewBox="0 0 32 33" fill="none" xmlns="http://www.w3.org/2000/svg">
<path d="M28.3333 12.5332C25.2533 7.69316 20.7467 4.90649 16 4.90649C13.6267 4.90649 11.32 5.59983 9.21334 6.89316C7.10667 8.19983 5.21334 10.1065 3.66667 12.5332C2.33334 14.6265 2.33334 18.0265 3.66667 20.1198C6.74667 24.9732 11.2533 27.7465 16 27.7465C18.3733 27.7465 20.68 27.0532 22.7867 25.7598C24.8933 24.4532 26.7867 22.5465 28.3333 20.1198C29.6667 18.0398 29.6667 14.6265 28.3333 12.5332ZM16 21.7198C13.0133 21.7198 10.6133 19.3065 10.6133 16.3332C10.6133 13.3598 13.0133 10.9465 16 10.9465C18.9867 10.9465 21.3867 13.3598 21.3867 16.3332C21.3867 19.3065 18.9867 21.7198 16 21.7198Z" fill="white"/>
<path d="M16 12.5198C13.9067 12.5198 12.2 14.2264 12.2 16.3331C12.2 18.4264 13.9067 20.1331 16 20.1331C18.0934 20.1331 19.8134 18.4264 19.8134 16.3331C19.8134 14.2398 18.0934 12.5198 16 12.5198Z" fill="white"/>
</svg>
