<svg width="44" height="43" viewBox="0 0 44 43" fill="none" xmlns="http://www.w3.org/2000/svg">
<path d="M34.0889 17.9502C32.08 17.9502 30.2844 18.928 29.1644 20.4213C28.0444 18.928 26.2489 17.9502 24.24 17.9502C20.8444 17.9502 18.0889 20.7235 18.0889 24.1369C18.0889 25.4524 18.3022 26.6791 18.6578 27.7991C20.4 33.328 25.8044 36.6524 28.4711 37.5591C28.8444 37.6835 29.4667 37.6835 29.84 37.5591C32.5067 36.6524 37.9111 33.3458 39.6533 27.7991C40.0267 26.6613 40.2222 25.4524 40.2222 24.1369C40.24 20.7235 37.4844 17.9502 34.0889 17.9502Z" fill="#1C5ED3"/>
<path d="M37.5555 15.1593C37.5555 15.5682 37.1467 15.8349 36.7555 15.7282C34.3555 15.106 31.7244 15.6215 29.7333 17.0437C29.3422 17.3282 28.8089 17.3282 28.4355 17.0437C27.0311 16.0126 25.3244 15.4438 23.5289 15.4438C18.9422 15.4438 15.2089 19.1949 15.2089 23.8171C15.2089 28.8304 17.6089 32.5815 20.0267 35.0882C20.1511 35.2126 20.0444 35.426 19.8844 35.3549C15.0311 33.7015 4.22221 26.8393 4.22221 15.1593C4.22221 10.0038 8.36444 5.84375 13.4844 5.84375C16.5244 5.84375 19.2089 7.30153 20.8978 9.55931C22.6044 7.30153 25.2889 5.84375 28.3111 5.84375C33.4133 5.84375 37.5555 10.0038 37.5555 15.1593Z" fill="#1C5ED3"/>
</svg>
