<svg width="309" height="42" viewBox="0 0 309 42" fill="none" xmlns="http://www.w3.org/2000/svg">
<path d="M33.075 0.738403H25.9232V11.2267H33.075V0.738403Z" fill="white"/>
<path d="M33.075 15.7565H25.9232V26.2448H33.075V15.7565Z" fill="white"/>
<path d="M33.075 30.7733H25.9232V41.2616H33.075V30.7733Z" fill="white"/>
<path d="M41.4779 0.738403H37.6042V11.2267H41.4779V0.738403Z" fill="white"/>
<path d="M41.4779 15.7565H37.6042V26.2448H41.4779V15.7565Z" fill="white"/>
<path d="M41.4779 30.7733H37.6042V41.2616H41.4779V30.7733Z" fill="white"/>
<path d="M10.7274 13.5564C10.7616 14.7896 11.8054 15.7565 13.0386 15.7565H21.3941V26.2448H13.0374C11.8031 26.2448 10.7604 27.2128 10.7274 28.4448C10.719 28.7474 10.7713 29.0486 10.8813 29.3306C10.9913 29.6126 11.1568 29.8697 11.3679 30.0866C11.579 30.3036 11.8315 30.476 12.1104 30.5936C12.3893 30.7113 12.689 30.7718 12.9917 30.7716H21.3941V41.2634H0V0.736694H21.3941V11.225H12.9917C12.6886 11.2249 12.3886 11.2856 12.1094 11.4036C11.8302 11.5215 11.5776 11.6943 11.3664 11.9118C11.1552 12.1292 10.9899 12.3868 10.8801 12.6693C10.7704 12.9518 10.7184 13.2535 10.7274 13.5564Z" fill="white"/>
<path d="M47.7555 0.738403H46.0077V11.2267H47.7555V0.738403Z" fill="white"/>
<path d="M47.7555 30.7733H46.0077V41.2616H47.7555V30.7733Z" fill="white"/>
<path d="M47.7555 15.7565H46.0077V26.2448H47.7555V15.7565Z" fill="white"/>
<path d="M75.9424 29.473C74.1747 29.473 72.6337 29.1135 71.3195 28.3944C70.0053 27.6753 68.9778 26.6892 68.2371 25.4359C67.4972 24.1823 67.1275 22.744 67.1279 21.121C67.1279 19.8674 67.3332 18.7168 67.7439 17.6693C68.1336 16.655 68.7202 15.7279 69.4697 14.9413C70.2139 14.1683 71.1116 13.5595 72.1051 13.154C73.1225 12.7329 74.227 12.5224 75.4185 12.5224C76.4758 12.5122 77.5242 12.7166 78.5002 13.1233C79.4263 13.511 80.2609 14.0882 80.9504 14.8179C81.6467 15.5607 82.1866 16.4358 82.5379 17.3914C82.9072 18.3779 83.0715 19.4567 83.0305 20.6277L82.9993 21.9842H69.9016L69.1924 19.3025H79.3941L78.9009 19.8572V19.1792C78.8634 18.6358 78.6767 18.1134 78.3613 17.6693C78.0503 17.2236 77.6322 16.8633 77.1455 16.6214C76.6274 16.3691 76.0572 16.2424 75.481 16.2514C74.5767 16.2514 73.8113 16.4261 73.1849 16.7754C72.5569 17.1255 72.0555 17.6648 71.752 18.3166C71.4231 18.9947 71.2587 19.8164 71.2587 20.7817C71.2587 21.7683 71.4692 22.6211 71.8903 23.3401C72.3126 24.06 72.9332 24.6429 73.6781 25.0191C74.4501 25.4197 75.3592 25.6201 76.4056 25.6201C77.0782 25.6284 77.7467 25.5136 78.3781 25.2814C78.9736 25.0552 79.6105 24.6646 80.2886 24.1096L82.3844 27.0373C81.7904 27.571 81.1272 28.022 80.4125 28.3782C79.706 28.7333 78.9616 29.0074 78.1934 29.1951C77.4569 29.3774 76.7012 29.4707 75.9424 29.473Z" fill="white"/>
<path d="M90.6415 29.1633L83.7994 12.8594H88.6076L92.9573 25.0353L91.9401 25.22L96.5016 12.8611H101.186L94.0069 29.165L90.6415 29.1633Z" fill="white"/>
<path d="M110.707 29.473C108.939 29.473 107.398 29.1135 106.084 28.3944C104.769 27.6753 103.742 26.6892 103.002 25.436C102.262 24.1823 101.893 22.744 101.892 21.121C101.892 19.8674 102.098 18.7168 102.509 17.6693C102.898 16.6548 103.485 15.7276 104.235 14.9413C104.979 14.1682 105.876 13.5593 106.87 13.154C107.887 12.7329 108.991 12.5224 110.183 12.5224C111.24 12.5121 112.289 12.7166 113.265 13.1233C114.191 13.511 115.026 14.0883 115.715 14.8179C116.411 15.5607 116.951 16.4358 117.302 17.3914C117.672 18.3779 117.837 19.4567 117.795 20.6277L117.764 21.9842H104.666L103.957 19.3025H114.159L113.665 19.8572V19.1792C113.628 18.6358 113.442 18.1132 113.126 17.6693C112.815 17.2236 112.397 16.8633 111.91 16.6214C111.393 16.369 110.823 16.2423 110.247 16.2514C109.342 16.2514 108.577 16.4261 107.95 16.7754C107.323 17.1255 106.821 17.6648 106.518 18.3166C106.189 18.9947 106.024 19.8164 106.024 20.7817C106.024 21.7683 106.235 22.6211 106.656 23.3401C107.078 24.0599 107.699 24.6427 108.444 25.0191C109.216 25.4197 110.125 25.6201 111.171 25.6201C111.844 25.6284 112.512 25.5136 113.144 25.2814C113.74 25.0552 114.377 24.6646 115.054 24.1096L117.15 27.0373C116.556 27.571 115.892 28.022 115.178 28.3782C114.471 28.7333 113.727 29.0074 112.958 29.1951C112.222 29.3775 111.466 29.4708 110.707 29.473Z" fill="white"/>
<path d="M120.6 29.1633V12.8611H124.822L124.976 18.1006L124.236 17.0221C124.48 16.1843 124.889 15.4037 125.439 14.7259C125.971 14.055 126.638 13.5028 127.396 13.1049C128.122 12.7203 128.931 12.5194 129.753 12.5195C130.094 12.5188 130.435 12.5496 130.77 12.6116C131.053 12.6614 131.331 12.7337 131.602 12.8276L130.431 17.6329C130.145 17.4952 129.845 17.3868 129.537 17.3092C129.185 17.2167 128.823 17.1702 128.459 17.1709C127.989 17.1664 127.523 17.2553 127.088 17.4325C126.676 17.6009 126.303 17.8529 125.994 18.1724C125.681 18.4968 125.435 18.8789 125.269 19.2974C125.091 19.7485 125.002 20.2301 125.007 20.7152V29.1633H120.6Z" fill="white"/>
<path d="M135.947 36.2537L139.523 27.8704L139.584 30.3976L131.631 12.8611H136.594L140.569 22.2616C140.752 22.6572 140.912 23.0632 141.047 23.4774C141.202 23.9405 141.33 24.3875 141.432 24.8182L140.693 25.1262C140.816 24.7788 140.959 24.3782 141.124 23.9243C141.288 23.4704 141.453 22.9879 141.617 22.4769L145.038 12.8611H150.031L143.19 29.1632L140.386 36.2519L135.947 36.2537Z" fill="white"/>
<path d="M158.015 29.473C156.597 29.473 155.323 29.1082 154.194 28.3788C153.064 27.6493 152.177 26.6527 151.531 25.389C150.883 24.1258 150.56 22.662 150.56 20.9977C150.56 19.3766 150.883 17.9281 151.531 16.6521C152.178 15.376 153.061 14.3693 154.182 13.6317C155.301 12.8918 156.58 12.522 158.018 12.5224C159.494 12.5237 160.933 12.9871 162.132 13.8476C162.663 14.2242 163.127 14.6877 163.504 15.2186C163.84 15.6848 164.042 16.2335 164.09 16.8061L162.98 16.9908V6.35828H167.353V29.1632H163.223L163.038 25.4L163.902 25.4927C163.852 26.0266 163.661 26.5374 163.346 26.9719C162.989 27.4728 162.545 27.9061 162.036 28.2514C161.469 28.6422 160.846 28.9435 160.188 29.1447C159.484 29.3643 158.752 29.475 158.015 29.473ZM158.999 25.8366C159.82 25.8366 160.54 25.631 161.157 25.22C161.774 24.8089 162.256 24.2439 162.604 23.5248C162.954 22.8058 163.129 21.9634 163.129 20.9977C163.129 20.0528 162.954 19.2155 162.604 18.4856C162.255 17.7557 161.772 17.1909 161.157 16.791C160.539 16.3904 159.82 16.1901 158.999 16.1901C158.178 16.1901 157.464 16.3904 156.857 16.791C156.251 17.1909 155.779 17.7557 155.44 18.4856C155.101 19.2155 154.931 20.0528 154.931 20.9977C154.931 21.9626 155.1 22.805 155.44 23.5248C155.779 24.2447 156.251 24.8097 156.857 25.22C157.464 25.631 158.179 25.8366 159.001 25.8366H158.999Z" fill="white"/>
<path d="M177.277 29.473C175.921 29.473 174.699 29.1032 173.609 28.3637C172.52 27.6242 171.657 26.617 171.02 25.3421C170.384 24.0684 170.065 22.6097 170.065 20.9658C170.065 19.322 170.389 17.8682 171.036 16.6046C171.683 15.3413 172.562 14.3447 173.671 13.6149C174.781 12.885 176.045 12.5205 177.462 12.5212C178.211 12.5128 178.956 12.6326 179.665 12.8755C180.303 13.0952 180.897 13.4237 181.422 13.8464C181.919 14.2504 182.35 14.7284 182.701 15.2637C183.047 15.7912 183.298 16.3753 183.441 16.9896L182.515 16.8356V12.8599H186.863V29.1632H182.456V25.2489L183.44 25.1563C183.27 25.7432 182.999 26.296 182.639 26.7901C182.256 27.3161 181.793 27.7789 181.267 28.1616C180.707 28.5701 180.089 28.8921 179.433 29.1169C178.74 29.3562 178.011 29.4766 177.277 29.473ZM178.479 25.682C179.3 25.682 180.019 25.4869 180.636 25.0967C181.253 24.7065 181.731 24.1568 182.07 23.4478C182.409 22.7392 182.578 21.9122 182.578 20.967C182.578 20.0407 182.409 19.229 182.07 18.5319C181.754 17.8602 181.258 17.2893 180.636 16.8831C180.019 16.4824 179.3 16.2821 178.479 16.2821C177.678 16.2821 176.974 16.4824 176.368 16.8831C175.752 17.2951 175.257 17.8644 174.935 18.5319C174.585 19.2309 174.41 20.0426 174.411 20.967C174.411 21.9118 174.585 22.7388 174.935 23.4478C175.284 24.1568 175.762 24.7065 176.368 25.0967C176.973 25.4869 177.677 25.682 178.479 25.682Z" fill="white"/>
<path d="M192.718 36.2537L196.293 27.8704L196.354 30.3976L188.402 12.8611H193.365L197.343 22.2616C197.525 22.6571 197.685 23.0631 197.82 23.4774C197.975 23.9405 198.103 24.3875 198.206 24.8182L197.466 25.1262C197.589 24.7788 197.733 24.3782 197.897 23.9243C198.062 23.4704 198.226 22.9879 198.39 22.4769L201.811 12.8611H206.804L199.96 29.1632L197.156 36.2519L192.718 36.2537Z" fill="white"/>
<path d="M208.682 29.1633V12.8611H212.904L212.996 15.9742L212.35 16.0975C212.794 15.0326 213.566 14.1367 214.553 13.5391C215.051 13.2337 215.584 12.9905 216.141 12.8148C216.679 12.6431 217.24 12.5548 217.804 12.5531C218.647 12.5531 219.407 12.6867 220.086 12.9538C220.757 13.2167 221.351 13.6462 221.811 14.202C222.284 14.767 222.654 15.5118 222.921 16.4362L222.243 16.3748L222.458 15.8815C222.727 15.3855 223.07 14.9334 223.475 14.5407C223.893 14.1351 224.36 13.7832 224.865 13.4928C225.369 13.1983 225.907 12.9651 226.467 12.798C226.997 12.6373 227.547 12.5543 228.101 12.5514C229.374 12.5514 230.432 12.8023 231.275 13.304C232.118 13.8058 232.749 14.5609 233.17 15.5695C233.591 16.5761 233.802 17.8089 233.803 19.2678V29.1633H229.426V19.5799C229.426 18.8404 229.323 18.2342 229.118 17.7614C228.912 17.2886 228.614 16.9343 228.224 16.6984C227.834 16.4622 227.33 16.3441 226.714 16.3441C226.267 16.3397 225.822 16.4182 225.404 16.5757C225.016 16.7216 224.66 16.9414 224.356 17.223C224.061 17.4955 223.824 17.826 223.662 18.1939C223.493 18.5826 223.409 19.0028 223.415 19.4265V29.1633H219.039V19.5492C219.039 18.871 218.931 18.2906 218.715 17.8077C218.499 17.3249 218.196 16.9601 217.806 16.7135C217.415 16.4676 216.933 16.3445 216.358 16.3441C215.911 16.3397 215.467 16.4182 215.049 16.5757C214.664 16.7193 214.313 16.9395 214.016 17.223C213.727 17.5011 213.492 17.8303 213.322 18.1939C213.145 18.5698 213.056 18.9805 213.059 19.3958V29.1633H208.682Z" fill="white"/>
<path d="M245.111 29.473C243.446 29.473 241.962 29.1082 240.657 28.3788C239.377 27.6743 238.312 26.6359 237.575 25.374C236.825 24.1003 236.45 22.6415 236.45 20.9977C236.451 19.3538 236.826 17.9001 237.575 16.6364C238.318 15.3794 239.382 14.3425 240.657 13.6317C241.962 12.8918 243.446 12.522 245.111 12.5224C246.755 12.5224 248.229 12.8922 249.534 13.6317C250.808 14.3403 251.867 15.378 252.602 16.6364C253.342 17.9001 253.712 19.3538 253.712 20.9977C253.712 22.6415 253.342 24.1003 252.602 25.374C251.874 26.6373 250.812 27.6765 249.534 28.3788C248.229 29.1082 246.755 29.473 245.111 29.473ZM245.111 25.6519C245.873 25.6628 246.622 25.4542 247.269 25.0509C247.91 24.6445 248.427 24.0687 248.763 23.387C249.122 22.678 249.302 21.8818 249.302 20.9983C249.302 20.0947 249.123 19.2882 248.763 18.5788C248.427 17.897 247.91 17.321 247.269 16.9143C246.622 16.5111 245.873 16.3024 245.111 16.3134C244.289 16.3134 243.559 16.5189 242.922 16.93C242.283 17.344 241.763 17.9177 241.413 18.5945C241.042 19.2927 240.868 20.0939 240.888 20.9983C240.868 21.8818 241.042 22.678 241.413 23.387C241.757 24.0677 242.278 24.6426 242.922 25.0509C243.559 25.4512 244.289 25.6513 245.111 25.6513V25.6519Z" fill="white"/>
<path d="M256.575 29.1633V12.8611H260.766L260.89 16.1901L260.027 16.5595C260.253 15.8203 260.658 15.1474 261.243 14.5406C261.846 13.9225 262.563 13.4257 263.354 13.0771C264.167 12.7091 265.05 12.52 265.943 12.5224C267.176 12.5224 268.208 12.7689 269.04 13.2617C269.872 13.7546 270.498 14.4995 270.92 15.4965C271.341 16.4935 271.552 17.721 271.552 19.1792V29.1633H267.176V19.5185C267.176 18.7786 267.073 18.1622 266.868 17.6693C266.662 17.1764 266.349 16.8117 265.928 16.5751C265.506 16.3389 264.987 16.2412 264.371 16.2821C263.904 16.2778 263.439 16.3562 262.999 16.5137C262.597 16.6565 262.23 16.8824 261.921 17.1766C261.626 17.4587 261.386 17.7923 261.212 18.1608C261.036 18.5369 260.947 18.9476 260.95 19.3627V29.1633H256.573H256.575Z" fill="white"/>
<path d="M283.05 29.473C281.282 29.473 279.741 29.1135 278.426 28.3944C277.111 27.6753 276.084 26.6892 275.344 25.436C274.605 24.1823 274.235 22.744 274.235 21.121C274.235 19.8674 274.441 18.7168 274.852 17.6693C275.241 16.6549 275.828 15.7278 276.577 14.9413C277.321 14.1682 278.219 13.5593 279.212 13.154C280.229 12.7329 281.334 12.5224 282.526 12.5224C283.583 12.5121 284.632 12.7166 285.608 13.1233C286.534 13.511 287.368 14.0883 288.057 14.8179C288.754 15.5607 289.294 16.4358 289.645 17.3914C290.015 18.3779 290.179 19.4567 290.138 20.6277L290.107 21.9842H277.006L276.298 19.3025H286.501L286.008 19.8572V19.1792C285.971 18.6358 285.784 18.1132 285.469 17.6693C285.158 17.2236 284.74 16.8633 284.253 16.6214C283.735 16.369 283.165 16.2423 282.589 16.2514C281.685 16.2514 280.92 16.4261 280.294 16.7754C279.666 17.1254 279.164 17.6648 278.86 18.3166C278.531 18.9947 278.367 19.8164 278.367 20.7817C278.367 21.7683 278.578 22.6211 278.999 23.3401C279.421 24.0599 280.042 24.6427 280.786 25.0191C281.558 25.4197 282.468 25.6201 283.514 25.6201C284.187 25.6285 284.855 25.5137 285.486 25.2814C286.083 25.0552 286.72 24.6646 287.397 24.1096L289.493 27.0373C288.899 27.571 288.235 28.022 287.52 28.3782C286.814 28.7333 286.069 29.0074 285.301 29.1951C284.564 29.3775 283.808 29.4708 283.05 29.473Z" fill="white"/>
<path d="M294.915 36.2537L298.49 27.8704L298.552 30.3976L290.6 12.8611H295.562L299.538 22.2616C299.721 22.6571 299.88 23.0631 300.016 23.4774C300.17 23.9405 300.299 24.3875 300.401 24.8182L299.661 25.1262C299.785 24.7788 299.928 24.3782 300.093 23.9243C300.257 23.4704 300.422 22.9879 300.586 22.4769L304.007 12.8611H309L302.157 29.1632L299.354 36.2537H294.915Z" fill="white"/>
</svg>
