<svg width="1920" height="261" viewBox="0 0 1920 261" fill="none" xmlns="http://www.w3.org/2000/svg">
<g opacity="0.05" clip-path="url(#clip0_29_2049)">
<path d="M78.6811 35.2632H15.611V127.757H78.6811V35.2632Z" fill="white"/>
<path d="M78.6811 167.693H15.611V260.187H78.6811V167.693Z" fill="white"/>
<path d="M152.785 35.2632H118.623V127.757H152.785V35.2632Z" fill="white"/>
<path d="M152.785 167.693H118.623V260.187H152.785V167.693Z" fill="white"/>
<path d="M208.145 167.693H192.731V260.187H208.145V167.693Z" fill="white"/>
<path d="M208.145 35.2632H192.731V127.757H208.145V35.2632Z" fill="white"/>
<path d="M456.719 156.226C441.13 156.226 427.54 153.056 415.95 146.714C404.36 140.373 395.299 131.677 388.768 120.625C382.243 109.569 378.982 96.885 378.985 82.5722C378.985 71.5167 380.796 61.37 384.418 52.1322C387.855 43.1877 393.027 35.0115 399.638 28.0744C406.201 21.2574 414.117 15.8886 422.879 12.3132C431.851 8.59967 441.591 6.74296 452.098 6.74296C461.423 6.65296 470.668 8.45583 479.276 12.0426C487.442 15.4612 494.802 20.5518 500.883 26.9868C507.024 33.5366 511.785 41.2545 514.882 49.6814C518.14 58.3815 519.588 67.8951 519.227 78.2221L518.952 90.1846H403.446L397.192 66.5352H487.159L482.809 71.4265V65.4478C482.478 60.6559 480.831 56.0483 478.05 52.1322C475.307 48.2018 471.62 45.0241 467.328 42.891C462.759 40.6662 457.731 39.5484 452.65 39.6284C444.674 39.6284 437.925 41.1687 432.401 44.2491C426.863 47.3368 422.441 52.0929 419.764 57.8403C416.864 63.8207 415.414 71.0674 415.414 79.5802C415.414 88.2802 417.271 95.8008 420.984 102.142C424.708 108.49 430.182 113.631 436.751 116.948C443.558 120.482 451.576 122.248 460.803 122.248C466.735 122.322 472.631 121.309 478.198 119.261C483.45 117.267 489.066 113.822 495.047 108.927L513.529 134.747C508.291 139.453 502.442 143.43 496.14 146.571C489.909 149.704 483.344 152.12 476.57 153.776C470.075 155.384 463.41 156.207 456.719 156.226Z" fill="white"/>
<path d="M586.347 153.493L526.008 9.71313H568.41L606.769 117.09L597.798 118.719L638.026 9.72847H679.336L616.026 153.509L586.347 153.493Z" fill="white"/>
<path d="M763.299 156.226C747.713 156.226 734.123 153.056 722.53 146.714C710.937 140.373 701.876 131.677 695.348 120.625C688.829 109.569 685.569 96.885 685.565 82.5722C685.565 71.5167 687.378 61.3701 691.003 52.1322C694.436 43.1859 699.609 35.0091 706.223 28.0744C712.783 21.2565 720.698 15.8875 729.458 12.3132C738.427 8.59972 748.167 6.743 758.678 6.743C768.004 6.65232 777.252 8.4552 785.861 12.0426C794.026 15.4613 801.384 20.552 807.463 26.9869C813.603 33.5367 818.364 41.2545 821.462 49.6815C824.726 58.3815 826.175 67.8951 825.807 78.2222L825.537 90.1847H710.026L703.777 66.5353H793.739L789.389 71.4265V65.4478C789.062 60.6558 787.417 56.0474 784.635 52.1322C781.892 48.2018 778.205 45.0241 773.913 42.8911C769.347 40.6656 764.319 39.5478 759.24 39.6285C751.265 39.6285 744.515 41.1687 738.991 44.2491C733.453 47.3368 729.031 52.093 726.354 57.8403C723.454 63.8207 722.004 71.0674 722.004 79.5802C722.004 88.2803 723.861 95.8008 727.574 102.142C731.299 108.489 736.772 113.629 743.341 116.948C750.148 120.482 758.166 122.248 767.393 122.248C773.325 122.322 779.221 121.309 784.788 119.261C790.047 117.267 795.663 113.822 801.637 108.928L820.12 134.747C814.879 139.453 809.028 143.43 802.725 146.571C796.494 149.704 789.929 152.12 783.155 153.776C776.658 155.384 769.992 156.207 763.299 156.226Z" fill="white"/>
<path d="M850.543 153.494V9.72871H887.779L889.137 55.9349L882.612 46.4231C884.765 39.0352 888.37 32.1511 893.217 26.174C897.909 20.2569 903.787 15.3873 910.474 11.8782C916.879 8.48727 924.016 6.7152 931.264 6.71642C934.273 6.70998 937.276 6.98178 940.234 7.52826C942.727 7.96781 945.18 8.6046 947.571 9.43266L937.243 51.8096C934.717 50.5958 932.076 49.6396 929.359 48.9555C926.255 48.1398 923.058 47.7297 919.848 47.7353C915.704 47.696 911.595 48.4803 907.757 50.0429C904.125 51.5279 900.839 53.7496 898.108 56.568C895.355 59.4286 893.185 62.7982 891.721 66.4883C890.146 70.4669 889.361 74.7136 889.408 78.9921V153.494H850.543Z" fill="white"/>
<path d="M985.889 216.024L1017.42 142.095L1017.96 164.381L947.827 9.73047H991.587L1026.65 92.631C1028.26 96.1204 1029.67 99.7004 1030.86 103.353C1032.23 107.437 1033.36 111.379 1034.26 115.178L1027.74 117.894C1028.82 114.83 1030.09 111.297 1031.54 107.294C1032.99 103.292 1034.44 99.0369 1035.89 94.5303L1066.06 9.73047H1110.09L1049.76 153.496L1025.03 216.009L985.889 216.024Z" fill="white"/>
<path d="M1180.5 156.226C1167.99 156.226 1156.76 153.009 1146.8 146.576C1136.84 140.143 1129.01 131.355 1123.31 120.211C1117.61 109.07 1114.75 96.1614 1114.75 81.4844C1114.75 67.1885 1117.61 54.4142 1123.31 43.1613C1129.02 31.9084 1136.81 23.0297 1146.69 16.5251C1156.56 10.0001 1167.84 6.73935 1180.53 6.74276C1193.54 6.75427 1206.23 10.841 1216.81 18.4295C1221.49 21.7509 1225.58 25.8383 1228.9 30.5197C1231.86 34.6309 1233.65 39.4705 1234.07 44.5195L1224.28 46.1482V-47.6172H1262.85V153.495H1226.43L1224.8 120.308L1232.41 121.125C1231.98 125.833 1230.29 130.338 1227.51 134.17C1224.36 138.587 1220.45 142.408 1215.96 145.453C1210.96 148.9 1205.46 151.557 1199.66 153.331C1193.46 155.268 1186.99 156.244 1180.5 156.226ZM1189.18 124.157C1196.42 124.157 1202.76 122.345 1208.21 118.72C1213.65 115.095 1217.9 110.112 1220.97 103.771C1224.05 97.4294 1225.6 90.0006 1225.6 81.4844C1225.6 73.1519 1224.05 65.7675 1220.97 59.331C1217.89 52.8945 1213.63 47.913 1208.21 44.3867C1202.76 40.8536 1196.42 39.087 1189.18 39.087C1181.94 39.087 1175.64 40.8536 1170.29 44.3867C1164.94 47.913 1160.78 52.8945 1157.79 59.331C1154.8 65.7675 1153.3 73.1519 1153.3 81.4844C1153.3 89.9938 1154.8 97.4226 1157.79 103.771C1160.78 110.119 1164.95 115.102 1170.29 118.72C1175.64 122.345 1181.95 124.157 1189.19 124.157H1189.18Z" fill="white"/>
<path d="M1350.37 156.226C1338.41 156.226 1327.63 152.965 1318.02 146.444C1308.42 139.922 1300.81 131.04 1295.19 119.797C1289.57 108.565 1286.77 95.7003 1286.77 81.2037C1286.77 66.707 1289.62 53.8868 1295.33 42.7429C1301.04 31.6023 1308.78 22.8137 1318.57 16.3772C1328.35 9.94068 1339.5 6.72588 1352 6.73268C1358.6 6.65819 1365.18 7.71493 1371.43 9.85728C1377.05 11.7941 1382.29 14.6911 1386.92 18.4195C1391.3 21.9815 1395.11 26.1972 1398.2 30.9181C1401.25 35.5694 1403.46 40.7213 1404.73 46.1381L1396.56 44.78V9.71942H1434.91V153.495H1396.04V118.975L1404.72 118.158C1403.21 123.334 1400.82 128.209 1397.65 132.567C1394.28 137.206 1390.19 141.287 1385.55 144.662C1380.62 148.264 1375.16 151.104 1369.38 153.086C1363.26 155.197 1356.84 156.258 1350.37 156.226ZM1360.97 122.794C1368.21 122.794 1374.55 121.074 1379.99 117.633C1385.43 114.191 1389.64 109.344 1392.63 103.092C1395.62 96.8424 1397.12 89.5497 1397.11 81.2139C1397.11 73.0449 1395.62 65.8868 1392.63 59.7396C1389.85 53.8156 1385.47 48.7816 1379.99 45.1986C1374.54 41.6655 1368.2 39.899 1360.97 39.899C1353.9 39.899 1347.69 41.6655 1342.35 45.1986C1336.91 48.8327 1332.55 53.853 1329.71 59.7396C1326.63 65.9038 1325.09 73.0619 1325.09 81.2139C1325.09 89.5463 1326.63 96.839 1329.71 103.092C1332.79 109.344 1337 114.191 1342.35 117.633C1347.69 121.074 1353.89 122.794 1360.97 122.794Z" fill="white"/>
<path d="M1486.53 216.024L1518.06 142.095L1518.6 164.381L1448.48 9.73047H1492.24L1527.32 92.631C1528.93 96.1196 1530.34 99.6997 1531.53 103.353C1532.89 107.437 1534.03 111.379 1534.93 115.178L1528.41 117.894C1529.49 114.83 1530.76 111.297 1532.21 107.294C1533.66 103.292 1535.11 99.0369 1536.56 94.5303L1566.73 9.73047H1610.76L1550.4 153.496L1525.67 216.009L1486.53 216.024Z" fill="white"/>
<path d="M1627.32 153.495V9.72974H1664.55L1665.36 37.1829L1659.66 38.2704C1663.58 28.8798 1670.39 20.9787 1679.09 15.7084C1683.48 13.0156 1688.18 10.8707 1693.09 9.32139C1697.84 7.8067 1702.79 7.02839 1707.77 7.01362C1715.19 7.01362 1721.9 8.19129 1727.88 10.5467C1733.81 12.8654 1739.05 16.6535 1743.1 21.5545C1747.27 26.5376 1750.53 33.1051 1752.89 41.2572L1746.91 40.7161L1748.81 36.366C1751.18 31.9919 1754.2 28.0046 1757.78 24.5413C1761.46 20.9651 1765.58 17.861 1770.03 15.3001C1774.48 12.7033 1779.23 10.6465 1784.16 9.1733C1788.83 7.75621 1793.69 7.02358 1798.57 6.99829C1809.8 6.99829 1819.13 9.21074 1826.56 13.6356C1833.99 18.0605 1839.56 24.72 1843.28 33.614C1846.99 42.491 1848.85 53.3627 1848.85 66.229V153.495H1810.25V68.9809C1810.25 62.4593 1809.35 57.1137 1807.54 52.9441C1805.73 48.7745 1803.1 45.6497 1799.65 43.57C1796.21 41.4869 1791.77 40.4454 1786.34 40.4454C1782.39 40.4067 1778.48 41.0991 1774.78 42.4877C1771.37 43.7745 1768.23 45.713 1765.55 48.1958C1762.94 50.5993 1760.85 53.5138 1759.42 56.758C1757.94 60.1865 1757.19 63.8915 1757.25 67.6279V153.495H1718.65V68.7103C1718.65 62.7299 1717.7 57.6107 1715.8 53.3526C1713.9 49.0944 1711.22 45.8778 1707.78 43.7028C1704.33 41.5346 1700.08 40.4488 1695.01 40.4454C1691.07 40.4062 1687.15 41.0987 1683.46 42.4877C1680.07 43.7539 1676.98 45.6959 1674.36 48.1958C1671.81 50.6488 1669.73 53.5515 1668.23 56.758C1666.68 60.0729 1665.89 63.6955 1665.92 67.3573V153.495H1627.32Z" fill="white"/>
<path d="M1948.58 156.225C1933.9 156.225 1920.81 153.009 1909.3 146.576C1898.01 140.363 1888.62 131.206 1882.12 120.077C1875.5 108.845 1872.2 95.9802 1872.2 81.4836C1872.2 66.9869 1875.51 54.1666 1882.12 43.0226C1888.67 31.9376 1898.05 22.7929 1909.3 16.5243C1920.81 9.99931 1933.9 6.73854 1948.58 6.74195C1963.07 6.74195 1976.07 10.0027 1987.58 16.5243C1998.81 22.7733 2008.16 31.9251 2014.64 43.0226C2021.17 54.1666 2024.43 66.9869 2024.43 81.4836C2024.43 95.9802 2021.17 108.845 2014.64 120.077C2008.21 131.218 1998.86 140.383 1987.58 146.576C1976.07 153.009 1963.07 156.225 1948.58 156.225ZM1948.58 122.528C1955.3 122.625 1961.9 120.785 1967.6 117.228C1973.26 113.644 1977.82 108.566 1980.78 102.555C1983.95 96.3019 1985.53 89.2799 1985.54 81.4887C1985.54 73.5205 1983.95 66.4083 1980.78 60.1521C1977.82 54.1395 1973.26 49.06 1967.6 45.4734C1961.9 41.9169 1955.3 40.0772 1948.58 40.1738C1941.33 40.1738 1934.89 41.9862 1929.28 45.6112C1923.64 49.2624 1919.05 54.3221 1915.97 60.29C1912.7 66.4474 1911.16 73.5136 1911.34 81.4887C1911.16 89.2799 1912.7 96.3019 1915.97 102.555C1919 108.557 1923.6 113.627 1929.28 117.228C1934.89 120.758 1941.33 122.523 1948.58 122.523V122.528Z" fill="white"/>
</g>
<defs>
<clipPath id="clip0_29_2049">
<rect width="2725" height="357.365" fill="white" transform="translate(-213 -97.178)"/>
</clipPath>
</defs>
</svg>
