<svg width="945" height="877" viewBox="0 0 945 877" fill="none" xmlns="http://www.w3.org/2000/svg">
<path d="M627.372 0.359375H472.775V227.081H627.372V0.359375Z" fill="white"/>
<path d="M627.372 324.999H472.775V551.72H627.372V324.999Z" fill="white"/>
<path d="M627.372 649.613H472.775V876.335H627.372V649.613Z" fill="white"/>
<path d="M809.016 0.359375H725.278V227.081H809.016V0.359375Z" fill="white"/>
<path d="M809.016 324.999H725.278V551.72H809.016V324.999Z" fill="white"/>
<path d="M809.016 649.613H725.278V876.335H809.016V649.613Z" fill="white"/>
<path d="M144.293 277.441C145.031 304.098 167.596 324.998 194.253 324.998H374.87V551.72H194.228C167.546 551.72 145.006 572.645 144.293 599.277C144.111 605.818 145.242 612.329 147.62 618.425C149.998 624.521 153.575 630.079 158.138 634.768C162.702 639.458 168.16 643.184 174.189 645.728C180.218 648.271 186.696 649.579 193.239 649.575H374.87V876.372H-87.5975V0.321655H374.87V227.043H193.239C186.688 227.04 180.202 228.353 174.167 230.903C168.132 233.453 162.67 237.189 158.105 241.889C153.541 246.589 149.966 252.157 147.594 258.264C145.221 264.371 144.099 270.892 144.293 277.441Z" fill="white"/>
<path d="M944.716 0.359375H906.933V227.081H944.716V0.359375Z" fill="white"/>
<path d="M944.716 649.613H906.933V876.335H944.716V649.613Z" fill="white"/>
<path d="M944.716 324.999H906.933V551.72H944.716V324.999Z" fill="white"/>
</svg>
