<svg width="307" height="309" viewBox="0 0 307 309" fill="none" xmlns="http://www.w3.org/2000/svg">
<g clip-path="url(#clip0_21_621)">
<rect x="40" y="41.6667" width="266.667" height="266.667" rx="21.3333" fill="#F3F5F7"/>
<path d="M82.6667 100.334C82.6667 91.4969 89.8301 84.3335 98.6667 84.3335H306.667V308.333H82.6667V100.334Z" fill="white"/>
<path d="M141.333 129.667C133.987 129.667 128 135.654 128 143C128 150.347 133.987 156.334 141.333 156.334C148.68 156.334 154.667 150.347 154.667 143C154.667 135.654 148.68 129.667 141.333 129.667ZM147.707 139.934L140.147 147.494C139.96 147.68 139.707 147.787 139.44 147.787C139.173 147.787 138.92 147.68 138.733 147.494L134.96 143.72C134.573 143.334 134.573 142.694 134.96 142.307C135.347 141.92 135.987 141.92 136.373 142.307L139.44 145.374L146.293 138.52C146.68 138.134 147.32 138.134 147.707 138.52C148.093 138.907 148.093 139.534 147.707 139.934Z" fill="#9CD323"/>
<rect x="173.333" y="127" width="133.333" height="6.66667" rx="3.33333" fill="#C3D4E9"/>
<rect x="173.333" y="149.667" width="133.333" height="6.66667" rx="3.33333" fill="#C3D4E9"/>
<rect x="173.333" y="172.333" width="133.333" height="6.66667" rx="3.33333" fill="#C3D4E9"/>
<path d="M141.333 213.667C133.987 213.667 128 219.654 128 227C128 234.347 133.987 240.334 141.333 240.334C148.68 240.334 154.667 234.347 154.667 227C154.667 219.654 148.68 213.667 141.333 213.667ZM147.707 223.934L140.147 231.494C139.96 231.68 139.707 231.787 139.44 231.787C139.173 231.787 138.92 231.68 138.733 231.494L134.96 227.72C134.573 227.334 134.573 226.694 134.96 226.307C135.347 225.92 135.987 225.92 136.373 226.307L139.44 229.374L146.293 222.52C146.68 222.134 147.32 222.134 147.707 222.52C148.093 222.907 148.093 223.534 147.707 223.934Z" fill="#9CD323"/>
<rect x="173.333" y="211" width="133.333" height="6.66667" rx="3.33333" fill="#C3D4E9"/>
<rect x="173.333" y="233.667" width="133.333" height="6.66667" rx="3.33333" fill="#C3D4E9"/>
<rect x="173.333" y="256.333" width="133.333" height="6.66667" rx="3.33333" fill="#C3D4E9"/>
</g>
<circle cx="41.6666" cy="41.6668" r="37.3333" fill="#FF5D31" stroke="#0D243F" stroke-width="8"/>
<path d="M41.928 55.0507C40.648 55.0507 39.4427 54.8161 38.312 54.3467C37.2027 53.8774 36.2427 53.2161 35.432 52.3627C34.6427 51.5094 34.0773 50.5067 33.736 49.3547L36.936 48.1387C37.3627 49.2694 38.0133 50.1441 38.888 50.7627C39.7627 51.3814 40.776 51.6907 41.928 51.6907C42.8667 51.6907 43.6773 51.5094 44.36 51.1467C45.064 50.7841 45.608 50.2721 45.992 49.6107C46.3973 48.9494 46.6 48.1494 46.6 47.2107C46.6 46.2934 46.3973 45.5041 45.992 44.8427C45.608 44.1814 45.064 43.6801 44.36 43.3387C43.6773 42.9974 42.8667 42.8267 41.928 42.8267C41.544 42.8267 41.1493 42.8587 40.744 42.9227C40.36 42.9867 40.0187 43.0721 39.72 43.1787L38.888 41.4187L45.16 34.0267H35.016V30.8267H49.384V33.8667L43.24 41.2267L43.144 40.0107C44.5733 40.0321 45.832 40.3521 46.92 40.9707C48.008 41.5681 48.8507 42.4001 49.448 43.4667C50.0667 44.5121 50.376 45.7281 50.376 47.1147C50.376 48.6081 50.0133 49.9627 49.288 51.1787C48.5627 52.3734 47.56 53.3227 46.28 54.0267C45.0213 54.7094 43.5707 55.0507 41.928 55.0507Z" fill="white"/>
<defs>
<clipPath id="clip0_21_621">
<rect x="40" y="41.6667" width="266.667" height="266.667" rx="21.3333" fill="white"/>
</clipPath>
</defs>
</svg>
