<svg width="309" height="309" viewBox="0 0 309 309" fill="none" xmlns="http://www.w3.org/2000/svg">
<g clip-path="url(#clip0_21_677)">
<rect x="42" y="41.6667" width="266.667" height="266.667" rx="21.3333" fill="#F3F5F7"/>
<path d="M84.6666 100.334C84.6666 91.4969 91.8301 84.3335 100.667 84.3335H250C258.837 84.3335 266 91.4969 266 100.333V308.333H84.6666V100.334Z" fill="white"/>
<path d="M239.728 157.525C238.982 157.525 238.288 157.387 237.648 157.109C237.008 156.821 236.464 156.432 236.016 155.941C235.568 155.451 235.238 154.885 235.024 154.245L236.624 153.573C236.912 154.309 237.334 154.875 237.888 155.269C238.443 155.664 239.083 155.861 239.808 155.861C240.235 155.861 240.608 155.797 240.928 155.669C241.248 155.531 241.494 155.339 241.664 155.093C241.846 154.848 241.936 154.565 241.936 154.245C241.936 153.808 241.814 153.461 241.568 153.205C241.323 152.949 240.96 152.747 240.48 152.597L238.24 151.893C237.344 151.616 236.662 151.195 236.192 150.629C235.723 150.053 235.488 149.381 235.488 148.613C235.488 147.941 235.654 147.355 235.984 146.853C236.315 146.341 236.768 145.941 237.344 145.653C237.931 145.365 238.598 145.221 239.344 145.221C240.059 145.221 240.71 145.349 241.296 145.605C241.883 145.851 242.384 146.192 242.8 146.629C243.227 147.067 243.536 147.573 243.728 148.149L242.16 148.837C241.926 148.208 241.558 147.723 241.056 147.381C240.566 147.04 239.995 146.869 239.344 146.869C238.95 146.869 238.603 146.939 238.304 147.077C238.006 147.205 237.771 147.397 237.6 147.653C237.44 147.899 237.36 148.187 237.36 148.517C237.36 148.901 237.483 149.243 237.728 149.541C237.974 149.84 238.347 150.064 238.848 150.213L240.928 150.869C241.878 151.157 242.592 151.573 243.072 152.117C243.552 152.651 243.792 153.317 243.792 154.117C243.792 154.779 243.616 155.365 243.264 155.877C242.923 156.389 242.448 156.795 241.84 157.093C241.232 157.381 240.528 157.525 239.728 157.525ZM238.992 158.933V143.813H240.272V158.933H238.992Z" fill="#C3D4E9"/>
<path d="M239.728 188.192C238.982 188.192 238.288 188.054 237.648 187.776C237.008 187.488 236.464 187.099 236.016 186.608C235.568 186.118 235.238 185.552 235.024 184.912L236.624 184.24C236.912 184.976 237.334 185.542 237.888 185.936C238.443 186.331 239.083 186.528 239.808 186.528C240.235 186.528 240.608 186.464 240.928 186.336C241.248 186.198 241.494 186.006 241.664 185.76C241.846 185.515 241.936 185.232 241.936 184.912C241.936 184.475 241.814 184.128 241.568 183.872C241.323 183.616 240.96 183.414 240.48 183.264L238.24 182.56C237.344 182.283 236.662 181.862 236.192 181.296C235.723 180.72 235.488 180.048 235.488 179.28C235.488 178.608 235.654 178.022 235.984 177.52C236.315 177.008 236.768 176.608 237.344 176.32C237.931 176.032 238.598 175.888 239.344 175.888C240.059 175.888 240.71 176.016 241.296 176.272C241.883 176.518 242.384 176.859 242.8 177.296C243.227 177.734 243.536 178.24 243.728 178.816L242.16 179.504C241.926 178.875 241.558 178.39 241.056 178.048C240.566 177.707 239.995 177.536 239.344 177.536C238.95 177.536 238.603 177.606 238.304 177.744C238.006 177.872 237.771 178.064 237.6 178.32C237.44 178.566 237.36 178.854 237.36 179.184C237.36 179.568 237.483 179.91 237.728 180.208C237.974 180.507 238.347 180.731 238.848 180.88L240.928 181.536C241.878 181.824 242.592 182.24 243.072 182.784C243.552 183.318 243.792 183.984 243.792 184.784C243.792 185.446 243.616 186.032 243.264 186.544C242.923 187.056 242.448 187.462 241.84 187.76C241.232 188.048 240.528 188.192 239.728 188.192ZM238.992 189.6V174.48H240.272V189.6H238.992Z" fill="#C3D4E9"/>
<path d="M239.728 218.859C238.982 218.859 238.288 218.72 237.648 218.443C237.008 218.155 236.464 217.765 236.016 217.275C235.568 216.784 235.238 216.219 235.024 215.579L236.624 214.907C236.912 215.643 237.334 216.208 237.888 216.603C238.443 216.997 239.083 217.195 239.808 217.195C240.235 217.195 240.608 217.131 240.928 217.003C241.248 216.864 241.494 216.672 241.664 216.427C241.846 216.181 241.936 215.899 241.936 215.579C241.936 215.141 241.814 214.795 241.568 214.539C241.323 214.283 240.96 214.08 240.48 213.931L238.24 213.227C237.344 212.949 236.662 212.528 236.192 211.963C235.723 211.387 235.488 210.715 235.488 209.947C235.488 209.275 235.654 208.688 235.984 208.187C236.315 207.675 236.768 207.275 237.344 206.987C237.931 206.699 238.598 206.555 239.344 206.555C240.059 206.555 240.71 206.683 241.296 206.939C241.883 207.184 242.384 207.525 242.8 207.963C243.227 208.4 243.536 208.907 243.728 209.483L242.16 210.171C241.926 209.541 241.558 209.056 241.056 208.715C240.566 208.373 239.995 208.203 239.344 208.203C238.95 208.203 238.603 208.272 238.304 208.411C238.006 208.539 237.771 208.731 237.6 208.987C237.44 209.232 237.36 209.52 237.36 209.851C237.36 210.235 237.483 210.576 237.728 210.875C237.974 211.173 238.347 211.397 238.848 211.547L240.928 212.203C241.878 212.491 242.592 212.907 243.072 213.451C243.552 213.984 243.792 214.651 243.792 215.451C243.792 216.112 243.616 216.699 243.264 217.211C242.923 217.723 242.448 218.128 241.84 218.427C241.232 218.715 240.528 218.859 239.728 218.859ZM238.992 220.267V205.147H240.272V220.267H238.992Z" fill="#C3D4E9"/>
<path d="M239.728 249.525C238.982 249.525 238.288 249.387 237.648 249.109C237.008 248.821 236.464 248.432 236.016 247.941C235.568 247.451 235.238 246.885 235.024 246.245L236.624 245.573C236.912 246.309 237.334 246.875 237.888 247.269C238.443 247.664 239.083 247.861 239.808 247.861C240.235 247.861 240.608 247.797 240.928 247.669C241.248 247.531 241.494 247.339 241.664 247.093C241.846 246.848 241.936 246.565 241.936 246.245C241.936 245.808 241.814 245.461 241.568 245.205C241.323 244.949 240.96 244.747 240.48 244.597L238.24 243.893C237.344 243.616 236.662 243.195 236.192 242.629C235.723 242.053 235.488 241.381 235.488 240.613C235.488 239.941 235.654 239.355 235.984 238.853C236.315 238.341 236.768 237.941 237.344 237.653C237.931 237.365 238.598 237.221 239.344 237.221C240.059 237.221 240.71 237.349 241.296 237.605C241.883 237.851 242.384 238.192 242.8 238.629C243.227 239.067 243.536 239.573 243.728 240.149L242.16 240.837C241.926 240.208 241.558 239.723 241.056 239.381C240.566 239.04 239.995 238.869 239.344 238.869C238.95 238.869 238.603 238.939 238.304 239.077C238.006 239.205 237.771 239.397 237.6 239.653C237.44 239.899 237.36 240.187 237.36 240.517C237.36 240.901 237.483 241.243 237.728 241.541C237.974 241.84 238.347 242.064 238.848 242.213L240.928 242.869C241.878 243.157 242.592 243.573 243.072 244.117C243.552 244.651 243.792 245.317 243.792 246.117C243.792 246.779 243.616 247.365 243.264 247.877C242.923 248.389 242.448 248.795 241.84 249.093C241.232 249.381 240.528 249.525 239.728 249.525ZM238.992 250.933V235.813H240.272V250.933H238.992Z" fill="#C3D4E9"/>
<path d="M239.728 280.192C238.982 280.192 238.288 280.054 237.648 279.776C237.008 279.488 236.464 279.099 236.016 278.608C235.568 278.118 235.238 277.552 235.024 276.912L236.624 276.24C236.912 276.976 237.334 277.542 237.888 277.936C238.443 278.331 239.083 278.528 239.808 278.528C240.235 278.528 240.608 278.464 240.928 278.336C241.248 278.198 241.494 278.006 241.664 277.76C241.846 277.515 241.936 277.232 241.936 276.912C241.936 276.475 241.814 276.128 241.568 275.872C241.323 275.616 240.96 275.414 240.48 275.264L238.24 274.56C237.344 274.283 236.662 273.862 236.192 273.296C235.723 272.72 235.488 272.048 235.488 271.28C235.488 270.608 235.654 270.022 235.984 269.52C236.315 269.008 236.768 268.608 237.344 268.32C237.931 268.032 238.598 267.888 239.344 267.888C240.059 267.888 240.71 268.016 241.296 268.272C241.883 268.518 242.384 268.859 242.8 269.296C243.227 269.734 243.536 270.24 243.728 270.816L242.16 271.504C241.926 270.875 241.558 270.39 241.056 270.048C240.566 269.707 239.995 269.536 239.344 269.536C238.95 269.536 238.603 269.606 238.304 269.744C238.006 269.872 237.771 270.064 237.6 270.32C237.44 270.566 237.36 270.854 237.36 271.184C237.36 271.568 237.483 271.91 237.728 272.208C237.974 272.507 238.347 272.731 238.848 272.88L240.928 273.536C241.878 273.824 242.592 274.24 243.072 274.784C243.552 275.318 243.792 275.984 243.792 276.784C243.792 277.446 243.616 278.032 243.264 278.544C242.923 279.056 242.448 279.462 241.84 279.76C241.232 280.048 240.528 280.192 239.728 280.192ZM238.992 281.6V266.48H240.272V281.6H238.992Z" fill="#C3D4E9"/>
<path d="M141.052 122.667V110.747H148.908V112.427H142.94V115.851H148.589V117.531H142.94V120.987H148.908V122.667H141.052ZM149.302 122.667L152.326 118.331L149.302 114.011H151.43L153.91 117.627H152.886L155.366 114.011H157.494L154.454 118.331L157.478 122.667H155.35L152.902 119.035H153.894L151.43 122.667H149.302ZM158.408 125.867V114.011H160.136V115.803L159.928 115.387C160.248 114.896 160.675 114.512 161.208 114.235C161.742 113.957 162.35 113.819 163.032 113.819C163.854 113.819 164.59 114.016 165.24 114.411C165.902 114.805 166.419 115.344 166.792 116.027C167.176 116.709 167.368 117.477 167.368 118.331C167.368 119.184 167.176 119.952 166.792 120.635C166.419 121.317 165.907 121.861 165.256 122.267C164.606 122.661 163.864 122.859 163.032 122.859C162.36 122.859 161.747 122.72 161.192 122.443C160.648 122.165 160.227 121.765 159.928 121.243L160.216 120.907V125.867H158.408ZM162.856 121.179C163.368 121.179 163.822 121.056 164.216 120.811C164.611 120.565 164.92 120.229 165.144 119.803C165.379 119.365 165.496 118.875 165.496 118.331C165.496 117.787 165.379 117.301 165.144 116.875C164.92 116.448 164.611 116.112 164.216 115.867C163.822 115.621 163.368 115.499 162.856 115.499C162.355 115.499 161.902 115.621 161.496 115.867C161.102 116.112 160.787 116.448 160.552 116.875C160.328 117.301 160.216 117.787 160.216 118.331C160.216 118.875 160.328 119.365 160.552 119.803C160.787 120.229 161.102 120.565 161.496 120.811C161.902 121.056 162.355 121.179 162.856 121.179ZM172.871 122.859C172.007 122.859 171.239 122.661 170.567 122.267C169.906 121.861 169.388 121.317 169.015 120.635C168.642 119.941 168.455 119.168 168.455 118.315C168.455 117.44 168.642 116.667 169.015 115.995C169.399 115.323 169.911 114.795 170.551 114.411C171.191 114.016 171.916 113.819 172.727 113.819C173.378 113.819 173.959 113.931 174.471 114.155C174.983 114.379 175.415 114.688 175.767 115.083C176.119 115.467 176.386 115.909 176.567 116.411C176.759 116.912 176.855 117.445 176.855 118.011C176.855 118.149 176.85 118.293 176.839 118.443C176.828 118.592 176.807 118.731 176.775 118.859H169.879V117.419H175.751L174.887 118.075C174.994 117.552 174.956 117.088 174.775 116.683C174.604 116.267 174.338 115.941 173.975 115.707C173.623 115.461 173.207 115.339 172.727 115.339C172.247 115.339 171.82 115.461 171.447 115.707C171.074 115.941 170.786 116.283 170.583 116.731C170.38 117.168 170.3 117.701 170.343 118.331C170.29 118.917 170.37 119.429 170.583 119.867C170.807 120.304 171.116 120.645 171.511 120.891C171.916 121.136 172.375 121.259 172.887 121.259C173.41 121.259 173.852 121.141 174.215 120.907C174.588 120.672 174.882 120.368 175.095 119.995L176.567 120.715C176.396 121.12 176.13 121.488 175.767 121.819C175.415 122.139 174.988 122.395 174.487 122.587C173.996 122.768 173.458 122.859 172.871 122.859ZM178.3 122.667V114.011H180.028V115.707L179.82 115.483C180.033 114.939 180.374 114.528 180.844 114.251C181.313 113.963 181.857 113.819 182.476 113.819C183.116 113.819 183.681 113.957 184.172 114.235C184.662 114.512 185.046 114.896 185.324 115.387C185.601 115.877 185.74 116.443 185.74 117.083V122.667H183.948V117.563C183.948 117.125 183.868 116.757 183.708 116.459C183.548 116.149 183.318 115.915 183.02 115.755C182.732 115.584 182.401 115.499 182.028 115.499C181.654 115.499 181.318 115.584 181.02 115.755C180.732 115.915 180.508 116.149 180.348 116.459C180.188 116.768 180.108 117.136 180.108 117.563V122.667H178.3ZM190.555 122.859C189.669 122.859 188.891 122.64 188.219 122.203C187.557 121.765 187.093 121.179 186.827 120.443L188.219 119.787C188.453 120.277 188.773 120.667 189.179 120.955C189.595 121.243 190.053 121.387 190.555 121.387C190.981 121.387 191.328 121.291 191.595 121.099C191.861 120.907 191.995 120.645 191.995 120.315C191.995 120.101 191.936 119.931 191.819 119.803C191.701 119.664 191.552 119.552 191.371 119.467C191.2 119.381 191.024 119.317 190.843 119.275L189.483 118.891C188.736 118.677 188.176 118.357 187.803 117.931C187.44 117.493 187.259 116.987 187.259 116.411C187.259 115.888 187.392 115.435 187.659 115.051C187.925 114.656 188.293 114.352 188.763 114.139C189.232 113.925 189.76 113.819 190.347 113.819C191.136 113.819 191.84 114.016 192.459 114.411C193.077 114.795 193.515 115.333 193.771 116.027L192.379 116.683C192.208 116.267 191.936 115.936 191.563 115.691C191.2 115.445 190.789 115.323 190.331 115.323C189.936 115.323 189.621 115.419 189.387 115.611C189.152 115.792 189.035 116.032 189.035 116.331C189.035 116.533 189.088 116.704 189.195 116.843C189.301 116.971 189.44 117.077 189.611 117.163C189.781 117.237 189.957 117.301 190.139 117.355L191.547 117.771C192.261 117.973 192.811 118.293 193.195 118.731C193.579 119.157 193.771 119.669 193.771 120.267C193.771 120.779 193.632 121.232 193.355 121.627C193.088 122.011 192.715 122.315 192.235 122.539C191.755 122.752 191.195 122.859 190.555 122.859ZM199.286 122.859C198.422 122.859 197.654 122.661 196.982 122.267C196.321 121.861 195.803 121.317 195.43 120.635C195.057 119.941 194.87 119.168 194.87 118.315C194.87 117.44 195.057 116.667 195.43 115.995C195.814 115.323 196.326 114.795 196.966 114.411C197.606 114.016 198.331 113.819 199.142 113.819C199.793 113.819 200.374 113.931 200.886 114.155C201.398 114.379 201.83 114.688 202.182 115.083C202.534 115.467 202.801 115.909 202.982 116.411C203.174 116.912 203.27 117.445 203.27 118.011C203.27 118.149 203.265 118.293 203.254 118.443C203.243 118.592 203.222 118.731 203.19 118.859H196.294V117.419H202.166L201.302 118.075C201.409 117.552 201.371 117.088 201.19 116.683C201.019 116.267 200.753 115.941 200.39 115.707C200.038 115.461 199.622 115.339 199.142 115.339C198.662 115.339 198.235 115.461 197.862 115.707C197.489 115.941 197.201 116.283 196.998 116.731C196.795 117.168 196.715 117.701 196.758 118.331C196.705 118.917 196.785 119.429 196.998 119.867C197.222 120.304 197.531 120.645 197.926 120.891C198.331 121.136 198.79 121.259 199.302 121.259C199.825 121.259 200.267 121.141 200.63 120.907C201.003 120.672 201.297 120.368 201.51 119.995L202.982 120.715C202.811 121.12 202.545 121.488 202.182 121.819C201.83 122.139 201.403 122.395 200.902 122.587C200.411 122.768 199.873 122.859 199.286 122.859ZM207.915 122.859C207.029 122.859 206.251 122.64 205.579 122.203C204.917 121.765 204.453 121.179 204.187 120.443L205.579 119.787C205.813 120.277 206.133 120.667 206.539 120.955C206.955 121.243 207.413 121.387 207.915 121.387C208.341 121.387 208.688 121.291 208.955 121.099C209.221 120.907 209.355 120.645 209.355 120.315C209.355 120.101 209.296 119.931 209.179 119.803C209.061 119.664 208.912 119.552 208.731 119.467C208.56 119.381 208.384 119.317 208.203 119.275L206.843 118.891C206.096 118.677 205.536 118.357 205.163 117.931C204.8 117.493 204.619 116.987 204.619 116.411C204.619 115.888 204.752 115.435 205.019 115.051C205.285 114.656 205.653 114.352 206.123 114.139C206.592 113.925 207.12 113.819 207.707 113.819C208.496 113.819 209.2 114.016 209.819 114.411C210.437 114.795 210.875 115.333 211.131 116.027L209.739 116.683C209.568 116.267 209.296 115.936 208.923 115.691C208.56 115.445 208.149 115.323 207.691 115.323C207.296 115.323 206.981 115.419 206.747 115.611C206.512 115.792 206.395 116.032 206.395 116.331C206.395 116.533 206.448 116.704 206.555 116.843C206.661 116.971 206.8 117.077 206.971 117.163C207.141 117.237 207.317 117.301 207.499 117.355L208.907 117.771C209.621 117.973 210.171 118.293 210.555 118.731C210.939 119.157 211.131 119.669 211.131 120.267C211.131 120.779 210.992 121.232 210.715 121.627C210.448 122.011 210.075 122.315 209.595 122.539C209.115 122.752 208.555 122.859 207.915 122.859Z" fill="#1A202C"/>
<rect x="106" y="147" width="54.6667" height="6.66667" rx="3.33333" fill="#C3D4E9"/>
<rect x="106" y="177.667" width="105.333" height="6.66667" rx="3.33333" fill="#C3D4E9"/>
<rect x="106" y="208.333" width="80" height="6.66667" rx="3.33333" fill="#C3D4E9"/>
<rect x="106" y="239" width="41.3333" height="6.66667" rx="3.33333" fill="#C3D4E9"/>
<rect x="152.667" y="239" width="41.3333" height="6.66667" rx="3.33333" fill="#C3D4E9"/>
<rect x="106" y="269.667" width="100" height="6.66667" rx="3.33333" fill="#C3D4E9"/>
</g>
<circle cx="42" cy="41.6668" r="37.3333" fill="#FF5D31" stroke="#0D243F" stroke-width="8"/>
<path d="M34.7041 54.6667V51.9467L41.2321 44.9707C42.5121 43.6054 43.5148 42.5067 44.2401 41.6747C44.9868 40.8214 45.5201 40.0747 45.8401 39.4347C46.1815 38.7947 46.3521 38.1227 46.3521 37.4187C46.3521 36.2667 46.0001 35.3814 45.2961 34.7627C44.5921 34.1227 43.6855 33.8027 42.5761 33.8027C41.4241 33.8027 40.4321 34.1334 39.6001 34.7947C38.7681 35.4347 38.1921 36.3734 37.8721 37.6107L34.5441 36.6507C34.8001 35.3921 35.3121 34.3041 36.0801 33.3867C36.8481 32.4481 37.7868 31.7227 38.8961 31.2107C40.0268 30.6987 41.2428 30.4427 42.5441 30.4427C44.0588 30.4427 45.3815 30.7307 46.5121 31.3067C47.6428 31.8614 48.5175 32.6401 49.1361 33.6427C49.7761 34.6454 50.0961 35.8081 50.0961 37.1307C50.0961 38.0054 49.9255 38.8587 49.5841 39.6907C49.2641 40.5014 48.7628 41.3654 48.0801 42.2827C47.3975 43.1787 46.5228 44.1921 45.4561 45.3227L39.6961 51.4667H50.5441V54.6667H34.7041Z" fill="white"/>
<defs>
<clipPath id="clip0_21_677">
<rect x="42" y="41.6667" width="266.667" height="266.667" rx="21.3333" fill="white"/>
</clipPath>
</defs>
</svg>
