<svg width="309" height="309" viewBox="0 0 309 309" fill="none" xmlns="http://www.w3.org/2000/svg">
<g clip-path="url(#clip0_21_657)">
<rect x="41.6667" y="41.6667" width="266.667" height="266.667" rx="21.3333" fill="#F3F5F7"/>
<path d="M84.3333 100.334C84.3333 91.4969 91.4968 84.3335 100.333 84.3335H308.333V308.333H84.3333V100.334Z" fill="white"/>
<path d="M121.981 135.525C121.117 135.525 120.349 135.344 119.677 134.981C119.016 134.619 118.499 134.123 118.125 133.493C117.763 132.853 117.581 132.128 117.581 131.317V123.413H119.165V131.285C119.165 131.829 119.283 132.315 119.517 132.741C119.763 133.157 120.093 133.483 120.509 133.717C120.936 133.952 121.427 134.069 121.981 134.069C122.536 134.069 123.021 133.952 123.437 133.717C123.864 133.483 124.195 133.157 124.429 132.741C124.675 132.315 124.797 131.829 124.797 131.285V123.413H126.381V131.317C126.381 132.128 126.195 132.853 125.821 133.493C125.459 134.123 124.947 134.619 124.285 134.981C123.624 135.344 122.856 135.525 121.981 135.525ZM131.55 135.525C130.686 135.525 129.934 135.312 129.294 134.885C128.654 134.459 128.201 133.883 127.934 133.157L129.118 132.581C129.364 133.093 129.7 133.499 130.126 133.797C130.553 134.096 131.028 134.245 131.55 134.245C132.02 134.245 132.409 134.133 132.718 133.909C133.028 133.685 133.182 133.392 133.182 133.029C133.182 132.773 133.108 132.571 132.958 132.421C132.82 132.261 132.649 132.139 132.446 132.053C132.244 131.957 132.057 131.888 131.886 131.845L130.59 131.477C129.812 131.253 129.241 130.933 128.878 130.517C128.526 130.101 128.35 129.616 128.35 129.061C128.35 128.549 128.478 128.107 128.734 127.733C129.001 127.349 129.358 127.051 129.806 126.837C130.265 126.624 130.777 126.517 131.342 126.517C132.1 126.517 132.777 126.709 133.374 127.093C133.982 127.477 134.414 128.016 134.67 128.709L133.454 129.269C133.262 128.821 132.974 128.469 132.59 128.213C132.206 127.947 131.774 127.813 131.294 127.813C130.857 127.813 130.51 127.925 130.254 128.149C129.998 128.363 129.87 128.635 129.87 128.965C129.87 129.211 129.934 129.413 130.062 129.573C130.19 129.723 130.345 129.84 130.526 129.925C130.708 130 130.884 130.064 131.054 130.117L132.462 130.533C133.166 130.736 133.71 131.051 134.094 131.477C134.489 131.904 134.686 132.416 134.686 133.013C134.686 133.493 134.553 133.925 134.286 134.309C134.02 134.693 133.652 134.992 133.182 135.205C132.713 135.419 132.169 135.525 131.55 135.525ZM140.282 135.525C139.45 135.525 138.709 135.328 138.058 134.933C137.407 134.539 136.895 134 136.522 133.317C136.149 132.624 135.962 131.851 135.962 130.997C135.962 130.133 136.143 129.365 136.506 128.693C136.879 128.021 137.381 127.493 138.01 127.109C138.65 126.715 139.365 126.517 140.154 126.517C140.794 126.517 141.359 126.635 141.85 126.869C142.351 127.093 142.773 127.403 143.114 127.797C143.466 128.181 143.733 128.624 143.914 129.125C144.106 129.616 144.202 130.128 144.202 130.661C144.202 130.779 144.191 130.912 144.17 131.061C144.159 131.2 144.143 131.333 144.122 131.461H137.05V130.181H143.258L142.554 130.757C142.65 130.203 142.597 129.707 142.394 129.269C142.191 128.832 141.893 128.485 141.498 128.229C141.103 127.973 140.655 127.845 140.154 127.845C139.653 127.845 139.194 127.973 138.778 128.229C138.362 128.485 138.037 128.853 137.802 129.333C137.578 129.803 137.487 130.363 137.53 131.013C137.487 131.643 137.583 132.197 137.818 132.677C138.063 133.147 138.405 133.515 138.842 133.781C139.29 134.037 139.775 134.165 140.298 134.165C140.874 134.165 141.359 134.032 141.754 133.765C142.149 133.499 142.469 133.157 142.714 132.741L143.962 133.381C143.791 133.776 143.525 134.139 143.162 134.469C142.81 134.789 142.389 135.045 141.898 135.237C141.418 135.429 140.879 135.525 140.282 135.525ZM145.822 135.333V126.709H147.278V128.293L147.118 128.069C147.321 127.579 147.63 127.216 148.046 126.981C148.462 126.736 148.969 126.613 149.566 126.613H150.094V128.021H149.342C148.734 128.021 148.244 128.213 147.87 128.597C147.497 128.971 147.31 129.504 147.31 130.197V135.333H145.822ZM151.096 135.333V126.709H152.552V128.389L152.312 128.245C152.525 127.701 152.867 127.28 153.336 126.981C153.816 126.672 154.376 126.517 155.016 126.517C155.635 126.517 156.184 126.656 156.664 126.933C157.155 127.211 157.539 127.595 157.816 128.085C158.104 128.576 158.248 129.131 158.248 129.749V135.333H156.744V130.229C156.744 129.749 156.659 129.344 156.488 129.013C156.317 128.683 156.072 128.427 155.752 128.245C155.443 128.053 155.085 127.957 154.68 127.957C154.275 127.957 153.912 128.053 153.592 128.245C153.283 128.427 153.037 128.688 152.856 129.029C152.675 129.36 152.584 129.76 152.584 130.229V135.333H151.096ZM162.585 135.525C162.02 135.525 161.519 135.424 161.081 135.221C160.655 135.008 160.319 134.72 160.073 134.357C159.828 133.984 159.705 133.557 159.705 133.077C159.705 132.619 159.801 132.208 159.993 131.845C160.196 131.472 160.505 131.157 160.921 130.901C161.348 130.645 161.881 130.464 162.521 130.357L165.721 129.829V131.077L162.857 131.557C162.303 131.653 161.897 131.829 161.641 132.085C161.396 132.341 161.273 132.656 161.273 133.029C161.273 133.381 161.412 133.675 161.689 133.909C161.977 134.144 162.335 134.261 162.761 134.261C163.305 134.261 163.775 134.149 164.169 133.925C164.575 133.691 164.889 133.376 165.113 132.981C165.348 132.587 165.465 132.149 165.465 131.669V129.477C165.465 129.008 165.289 128.629 164.937 128.341C164.596 128.043 164.143 127.893 163.577 127.893C163.087 127.893 162.649 128.021 162.265 128.277C161.892 128.523 161.615 128.853 161.433 129.269L160.137 128.597C160.297 128.203 160.553 127.851 160.905 127.541C161.257 127.221 161.668 126.971 162.137 126.789C162.607 126.608 163.097 126.517 163.609 126.517C164.271 126.517 164.852 126.645 165.353 126.901C165.855 127.147 166.244 127.493 166.521 127.941C166.809 128.379 166.953 128.891 166.953 129.477V135.333H165.497V133.701L165.769 133.797C165.588 134.139 165.343 134.437 165.033 134.693C164.724 134.949 164.361 135.152 163.945 135.301C163.529 135.451 163.076 135.525 162.585 135.525ZM168.94 135.333V126.709H170.396V128.469L170.188 128.197C170.402 127.653 170.743 127.237 171.212 126.949C171.682 126.661 172.21 126.517 172.796 126.517C173.468 126.517 174.071 126.704 174.604 127.077C175.148 127.451 175.522 127.941 175.724 128.549L175.308 128.565C175.532 127.893 175.911 127.387 176.444 127.045C176.978 126.693 177.57 126.517 178.22 126.517C178.818 126.517 179.356 126.656 179.836 126.933C180.327 127.211 180.716 127.595 181.004 128.085C181.292 128.576 181.436 129.131 181.436 129.749V135.333H179.932V130.229C179.932 129.749 179.847 129.344 179.676 129.013C179.506 128.683 179.271 128.427 178.972 128.245C178.684 128.053 178.343 127.957 177.948 127.957C177.564 127.957 177.218 128.053 176.908 128.245C176.61 128.427 176.37 128.688 176.188 129.029C176.018 129.36 175.932 129.76 175.932 130.229V135.333H174.428V130.229C174.428 129.749 174.343 129.344 174.172 129.013C174.002 128.683 173.767 128.427 173.468 128.245C173.18 128.053 172.839 127.957 172.444 127.957C172.06 127.957 171.714 128.053 171.404 128.245C171.106 128.427 170.866 128.688 170.684 129.029C170.514 129.36 170.428 129.76 170.428 130.229V135.333H168.94ZM187.198 135.525C186.366 135.525 185.624 135.328 184.974 134.933C184.323 134.539 183.811 134 183.438 133.317C183.064 132.624 182.878 131.851 182.878 130.997C182.878 130.133 183.059 129.365 183.422 128.693C183.795 128.021 184.296 127.493 184.926 127.109C185.566 126.715 186.28 126.517 187.07 126.517C187.71 126.517 188.275 126.635 188.766 126.869C189.267 127.093 189.688 127.403 190.03 127.797C190.382 128.181 190.648 128.624 190.83 129.125C191.022 129.616 191.118 130.128 191.118 130.661C191.118 130.779 191.107 130.912 191.086 131.061C191.075 131.2 191.059 131.333 191.038 131.461H183.966V130.181H190.174L189.47 130.757C189.566 130.203 189.512 129.707 189.31 129.269C189.107 128.832 188.808 128.485 188.414 128.229C188.019 127.973 187.571 127.845 187.07 127.845C186.568 127.845 186.11 127.973 185.694 128.229C185.278 128.485 184.952 128.853 184.718 129.333C184.494 129.803 184.403 130.363 184.446 131.013C184.403 131.643 184.499 132.197 184.734 132.677C184.979 133.147 185.32 133.515 185.758 133.781C186.206 134.037 186.691 134.165 187.214 134.165C187.79 134.165 188.275 134.032 188.67 133.765C189.064 133.499 189.384 133.157 189.63 132.741L190.878 133.381C190.707 133.776 190.44 134.139 190.078 134.469C189.726 134.789 189.304 135.045 188.814 135.237C188.334 135.429 187.795 135.525 187.198 135.525Z" fill="#1A202C"/>
<rect x="116.333" y="147" width="192" height="40" rx="2.66667" fill="#F3F5F7"/>
<path d="M133.741 178.853C133.571 178.853 133.395 178.837 133.213 178.805C133.043 178.784 132.872 178.741 132.701 178.677V177.557C132.808 177.568 132.941 177.584 133.101 177.605C133.272 177.637 133.443 177.653 133.613 177.653C134.136 177.653 134.536 177.541 134.813 177.317C135.091 177.104 135.363 176.688 135.629 176.069L136.173 174.789L136.141 175.845L132.509 166.757H133.805L136.781 174.261H136.445L139.405 166.757H140.733L136.813 176.421C136.643 176.837 136.424 177.232 136.157 177.605C135.901 177.979 135.576 178.277 135.181 178.501C134.787 178.736 134.307 178.853 133.741 178.853ZM145.843 175.525C145.033 175.525 144.297 175.333 143.635 174.949C142.974 174.555 142.446 174.021 142.051 173.349C141.667 172.667 141.475 171.893 141.475 171.029C141.475 170.176 141.667 169.413 142.051 168.741C142.435 168.069 142.953 167.541 143.603 167.157C144.265 166.763 145.011 166.565 145.843 166.565C146.675 166.565 147.417 166.757 148.067 167.141C148.729 167.525 149.246 168.053 149.619 168.725C150.003 169.397 150.195 170.165 150.195 171.029C150.195 171.904 149.998 172.683 149.603 173.365C149.209 174.037 148.681 174.565 148.019 174.949C147.369 175.333 146.643 175.525 145.843 175.525ZM145.843 174.325C146.419 174.325 146.937 174.181 147.395 173.893C147.865 173.605 148.233 173.211 148.499 172.709C148.777 172.208 148.915 171.648 148.915 171.029C148.915 170.411 148.777 169.856 148.499 169.365C148.233 168.875 147.865 168.485 147.395 168.197C146.937 167.909 146.419 167.765 145.843 167.765C145.267 167.765 144.745 167.909 144.275 168.197C143.817 168.485 143.449 168.875 143.171 169.365C142.894 169.856 142.755 170.411 142.755 171.029C142.755 171.648 142.894 172.208 143.171 172.709C143.449 173.211 143.817 173.605 144.275 173.893C144.745 174.181 145.267 174.325 145.843 174.325ZM155.192 175.525C154.594 175.525 154.05 175.387 153.56 175.109C153.069 174.821 152.68 174.427 152.392 173.925C152.114 173.413 151.976 172.827 151.976 172.165V166.757H153.176V172.021C153.176 172.48 153.266 172.885 153.448 173.237C153.64 173.579 153.901 173.845 154.232 174.037C154.573 174.229 154.962 174.325 155.4 174.325C155.837 174.325 156.226 174.229 156.568 174.037C156.909 173.835 157.176 173.552 157.368 173.189C157.56 172.816 157.656 172.373 157.656 171.861V166.757H158.856V175.333H157.656V173.669L157.928 173.733C157.725 174.288 157.378 174.725 156.888 175.045C156.397 175.365 155.832 175.525 155.192 175.525ZM161.163 175.333V166.757H162.363V168.165L162.203 167.957C162.406 167.552 162.71 167.232 163.115 166.997C163.531 166.763 164.033 166.645 164.619 166.645H165.163V167.845H164.411C163.793 167.845 163.297 168.037 162.923 168.421C162.55 168.805 162.363 169.349 162.363 170.053V175.333H161.163ZM166.362 176.453V175.333H173.562V176.453H166.362ZM178.852 175.525C178.255 175.525 177.711 175.387 177.22 175.109C176.73 174.821 176.34 174.427 176.052 173.925C175.775 173.413 175.636 172.827 175.636 172.165V166.757H176.836V172.021C176.836 172.48 176.927 172.885 177.108 173.237C177.3 173.579 177.562 173.845 177.892 174.037C178.234 174.229 178.623 174.325 179.06 174.325C179.498 174.325 179.887 174.229 180.228 174.037C180.57 173.835 180.836 173.552 181.028 173.189C181.22 172.816 181.316 172.373 181.316 171.861V166.757H182.516V175.333H181.316V173.669L181.588 173.733C181.386 174.288 181.039 174.725 180.548 175.045C180.058 175.365 179.492 175.525 178.852 175.525ZM187.8 175.525C186.979 175.525 186.259 175.317 185.64 174.901C185.021 174.485 184.573 173.92 184.296 173.205L185.304 172.725C185.549 173.248 185.891 173.664 186.328 173.973C186.776 174.283 187.267 174.437 187.8 174.437C188.312 174.437 188.744 174.315 189.096 174.069C189.448 173.813 189.624 173.483 189.624 173.077C189.624 172.779 189.539 172.544 189.368 172.373C189.197 172.192 189 172.053 188.776 171.957C188.552 171.861 188.355 171.792 188.184 171.749L186.952 171.397C186.163 171.173 185.592 170.859 185.24 170.453C184.888 170.048 184.712 169.579 184.712 169.045C184.712 168.544 184.84 168.107 185.096 167.733C185.352 167.36 185.699 167.072 186.136 166.869C186.573 166.667 187.059 166.565 187.592 166.565C188.317 166.565 188.973 166.757 189.56 167.141C190.157 167.515 190.579 168.037 190.824 168.709L189.8 169.189C189.587 168.709 189.277 168.336 188.872 168.069C188.477 167.792 188.035 167.653 187.544 167.653C187.064 167.653 186.68 167.776 186.392 168.021C186.104 168.267 185.96 168.576 185.96 168.949C185.96 169.237 186.035 169.467 186.184 169.637C186.333 169.808 186.504 169.936 186.696 170.021C186.899 170.107 187.075 170.171 187.224 170.213L188.648 170.629C189.341 170.832 189.88 171.147 190.264 171.573C190.659 172 190.856 172.501 190.856 173.077C190.856 173.547 190.723 173.968 190.456 174.341C190.2 174.715 189.843 175.008 189.384 175.221C188.925 175.424 188.397 175.525 187.8 175.525ZM196.709 175.525C195.909 175.525 195.183 175.333 194.533 174.949C193.893 174.555 193.386 174.016 193.013 173.333C192.639 172.651 192.453 171.877 192.453 171.013C192.453 170.149 192.634 169.387 192.997 168.725C193.359 168.053 193.85 167.525 194.469 167.141C195.098 166.757 195.802 166.565 196.581 166.565C197.199 166.565 197.749 166.683 198.229 166.917C198.719 167.141 199.135 167.451 199.477 167.845C199.818 168.229 200.079 168.667 200.261 169.157C200.442 169.637 200.533 170.133 200.533 170.645C200.533 170.752 200.527 170.875 200.517 171.013C200.506 171.141 200.49 171.275 200.469 171.413H193.221V170.293H199.781L199.205 170.773C199.301 170.187 199.231 169.664 198.997 169.205C198.773 168.736 198.447 168.368 198.021 168.101C197.594 167.824 197.114 167.685 196.581 167.685C196.047 167.685 195.551 167.824 195.093 168.101C194.645 168.379 194.293 168.768 194.037 169.269C193.781 169.76 193.679 170.347 193.733 171.029C193.679 171.712 193.786 172.309 194.053 172.821C194.33 173.323 194.703 173.712 195.173 173.989C195.653 174.267 196.165 174.405 196.709 174.405C197.338 174.405 197.866 174.256 198.293 173.957C198.719 173.659 199.066 173.285 199.333 172.837L200.357 173.381C200.186 173.765 199.925 174.123 199.573 174.453C199.221 174.773 198.799 175.035 198.309 175.237C197.829 175.429 197.295 175.525 196.709 175.525ZM202.488 175.333V166.757H203.688V168.165L203.528 167.957C203.731 167.552 204.035 167.232 204.44 166.997C204.856 166.763 205.358 166.645 205.944 166.645H206.488V167.845H205.736C205.118 167.845 204.622 168.037 204.248 168.421C203.875 168.805 203.688 169.349 203.688 170.053V175.333H202.488Z" fill="#1A202C"/>
<path d="M208.76 178.373V161.813H210.04V178.373H208.76Z" fill="#1A202C"/>
<path d="M117.661 222V210.08H121.869C122.659 210.08 123.352 210.23 123.949 210.528C124.547 210.827 125.011 211.254 125.341 211.808C125.683 212.363 125.853 213.014 125.853 213.76C125.853 214.507 125.683 215.158 125.341 215.712C125.011 216.256 124.547 216.683 123.949 216.992C123.363 217.291 122.669 217.44 121.869 217.44H119.229V222H117.661ZM119.229 216H121.917C122.397 216 122.813 215.91 123.165 215.728C123.517 215.547 123.789 215.286 123.981 214.944C124.173 214.603 124.269 214.208 124.269 213.76C124.269 213.302 124.173 212.907 123.981 212.576C123.789 212.235 123.517 211.974 123.165 211.792C122.813 211.611 122.397 211.52 121.917 211.52H119.229V216ZM129.412 222.192C128.847 222.192 128.345 222.091 127.908 221.888C127.481 221.675 127.145 221.387 126.9 221.024C126.655 220.651 126.532 220.224 126.532 219.744C126.532 219.286 126.628 218.875 126.82 218.512C127.023 218.139 127.332 217.824 127.748 217.568C128.175 217.312 128.708 217.131 129.348 217.024L132.548 216.496V217.744L129.684 218.224C129.129 218.32 128.724 218.496 128.468 218.752C128.223 219.008 128.1 219.323 128.1 219.696C128.1 220.048 128.239 220.342 128.516 220.576C128.804 220.811 129.161 220.928 129.588 220.928C130.132 220.928 130.601 220.816 130.996 220.592C131.401 220.358 131.716 220.043 131.94 219.648C132.175 219.254 132.292 218.816 132.292 218.336V216.144C132.292 215.675 132.116 215.296 131.764 215.008C131.423 214.71 130.969 214.56 130.404 214.56C129.913 214.56 129.476 214.688 129.092 214.944C128.719 215.19 128.441 215.52 128.26 215.936L126.964 215.264C127.124 214.87 127.38 214.518 127.732 214.208C128.084 213.888 128.495 213.638 128.964 213.456C129.433 213.275 129.924 213.184 130.436 213.184C131.097 213.184 131.679 213.312 132.18 213.568C132.681 213.814 133.071 214.16 133.348 214.608C133.636 215.046 133.78 215.558 133.78 216.144V222H132.324V220.368L132.596 220.464C132.415 220.806 132.169 221.104 131.86 221.36C131.551 221.616 131.188 221.819 130.772 221.968C130.356 222.118 129.903 222.192 129.412 222.192ZM138.855 222.192C137.991 222.192 137.239 221.979 136.599 221.552C135.959 221.126 135.506 220.55 135.239 219.824L136.423 219.248C136.669 219.76 137.005 220.166 137.431 220.464C137.858 220.763 138.333 220.912 138.855 220.912C139.325 220.912 139.714 220.8 140.023 220.576C140.333 220.352 140.487 220.059 140.487 219.696C140.487 219.44 140.413 219.238 140.263 219.088C140.125 218.928 139.954 218.806 139.751 218.72C139.549 218.624 139.362 218.555 139.191 218.512L137.895 218.144C137.117 217.92 136.546 217.6 136.183 217.184C135.831 216.768 135.655 216.283 135.655 215.728C135.655 215.216 135.783 214.774 136.039 214.4C136.306 214.016 136.663 213.718 137.111 213.504C137.57 213.291 138.082 213.184 138.647 213.184C139.405 213.184 140.082 213.376 140.679 213.76C141.287 214.144 141.719 214.683 141.975 215.376L140.759 215.936C140.567 215.488 140.279 215.136 139.895 214.88C139.511 214.614 139.079 214.48 138.599 214.48C138.162 214.48 137.815 214.592 137.559 214.816C137.303 215.03 137.175 215.302 137.175 215.632C137.175 215.878 137.239 216.08 137.367 216.24C137.495 216.39 137.65 216.507 137.831 216.592C138.013 216.667 138.189 216.731 138.359 216.784L139.767 217.2C140.471 217.403 141.015 217.718 141.399 218.144C141.794 218.571 141.991 219.083 141.991 219.68C141.991 220.16 141.858 220.592 141.591 220.976C141.325 221.36 140.957 221.659 140.487 221.872C140.018 222.086 139.474 222.192 138.855 222.192ZM146.707 222.192C145.843 222.192 145.091 221.979 144.451 221.552C143.811 221.126 143.358 220.55 143.091 219.824L144.275 219.248C144.52 219.76 144.856 220.166 145.283 220.464C145.71 220.763 146.184 220.912 146.707 220.912C147.176 220.912 147.566 220.8 147.875 220.576C148.184 220.352 148.339 220.059 148.339 219.696C148.339 219.44 148.264 219.238 148.115 219.088C147.976 218.928 147.806 218.806 147.603 218.72C147.4 218.624 147.214 218.555 147.043 218.512L145.747 218.144C144.968 217.92 144.398 217.6 144.035 217.184C143.683 216.768 143.507 216.283 143.507 215.728C143.507 215.216 143.635 214.774 143.891 214.4C144.158 214.016 144.515 213.718 144.963 213.504C145.422 213.291 145.934 213.184 146.499 213.184C147.256 213.184 147.934 213.376 148.531 213.76C149.139 214.144 149.571 214.683 149.827 215.376L148.611 215.936C148.419 215.488 148.131 215.136 147.747 214.88C147.363 214.614 146.931 214.48 146.451 214.48C146.014 214.48 145.667 214.592 145.411 214.816C145.155 215.03 145.027 215.302 145.027 215.632C145.027 215.878 145.091 216.08 145.219 216.24C145.347 216.39 145.502 216.507 145.683 216.592C145.864 216.667 146.04 216.731 146.211 216.784L147.619 217.2C148.323 217.403 148.867 217.718 149.251 218.144C149.646 218.571 149.843 219.083 149.843 219.68C149.843 220.16 149.71 220.592 149.443 220.976C149.176 221.36 148.808 221.659 148.339 221.872C147.87 222.086 147.326 222.192 146.707 222.192ZM153.299 222L150.339 213.376H151.987L154.339 220.592L153.763 220.576L156.067 213.376H157.475L159.779 220.576L159.203 220.592L161.571 213.376H163.203L160.243 222H158.819L156.547 214.8H156.995L154.723 222H153.299ZM168.153 222.192C167.321 222.192 166.569 222 165.897 221.616C165.225 221.222 164.692 220.683 164.297 220C163.903 219.318 163.705 218.544 163.705 217.68C163.705 216.816 163.897 216.048 164.281 215.376C164.676 214.704 165.209 214.171 165.881 213.776C166.553 213.382 167.311 213.184 168.153 213.184C168.985 213.184 169.737 213.382 170.409 213.776C171.081 214.16 171.609 214.688 171.993 215.36C172.388 216.032 172.585 216.806 172.585 217.68C172.585 218.555 172.383 219.334 171.977 220.016C171.572 220.688 171.033 221.222 170.361 221.616C169.7 222 168.964 222.192 168.153 222.192ZM168.153 220.752C168.687 220.752 169.167 220.619 169.593 220.352C170.031 220.086 170.372 219.718 170.617 219.248C170.873 218.779 171.001 218.256 171.001 217.68C171.001 217.094 170.873 216.576 170.617 216.128C170.372 215.67 170.031 215.307 169.593 215.04C169.167 214.763 168.687 214.624 168.153 214.624C167.609 214.624 167.119 214.763 166.681 215.04C166.255 215.307 165.913 215.67 165.657 216.128C165.401 216.576 165.273 217.094 165.273 217.68C165.273 218.256 165.401 218.779 165.657 219.248C165.913 219.718 166.255 220.086 166.681 220.352C167.119 220.619 167.609 220.752 168.153 220.752ZM174.206 222V213.376H175.662V214.96L175.502 214.736C175.705 214.246 176.014 213.883 176.43 213.648C176.846 213.403 177.353 213.28 177.95 213.28H178.478V214.688H177.726C177.118 214.688 176.627 214.88 176.254 215.264C175.881 215.638 175.694 216.171 175.694 216.864V222H174.206ZM183.4 222.192C182.589 222.192 181.858 221.995 181.208 221.6C180.568 221.206 180.061 220.667 179.688 219.984C179.314 219.302 179.128 218.539 179.128 217.696C179.128 216.832 179.314 216.064 179.688 215.392C180.061 214.71 180.568 214.171 181.208 213.776C181.858 213.382 182.589 213.184 183.4 213.184C184.114 213.184 184.749 213.339 185.304 213.648C185.858 213.947 186.296 214.352 186.616 214.864L186.376 215.232V209.888H187.88V222H186.424V220.16L186.616 220.416C186.317 220.982 185.88 221.419 185.304 221.728C184.738 222.038 184.104 222.192 183.4 222.192ZM183.528 220.752C184.072 220.752 184.557 220.619 184.984 220.352C185.41 220.086 185.746 219.723 185.992 219.264C186.248 218.795 186.376 218.272 186.376 217.696C186.376 217.11 186.248 216.587 185.992 216.128C185.746 215.659 185.41 215.291 184.984 215.024C184.557 214.758 184.072 214.624 183.528 214.624C182.994 214.624 182.509 214.763 182.072 215.04C181.645 215.307 181.309 215.67 181.064 216.128C180.818 216.576 180.696 217.099 180.696 217.696C180.696 218.272 180.818 218.795 181.064 219.264C181.309 219.723 181.645 220.086 182.072 220.352C182.498 220.619 182.984 220.752 183.528 220.752Z" fill="#1A202C"/>
<rect x="116.333" y="233.667" width="192" height="40" rx="2.66667" fill="#F3F5F7"/>
<circle cx="135.667" cy="254.334" r="3.33333" fill="#1A202C"/>
<circle cx="150.333" cy="254.334" r="3.33333" fill="#1A202C"/>
<circle cx="165" cy="254.334" r="3.33333" fill="#1A202C"/>
<circle cx="179.667" cy="254.334" r="3.33333" fill="#1A202C"/>
<circle cx="194.333" cy="254.334" r="3.33333" fill="#1A202C"/>
<circle cx="209" cy="254.334" r="3.33333" fill="#1A202C"/>
<circle cx="223.667" cy="254.334" r="3.33333" fill="#1A202C"/>
<circle cx="238.333" cy="254.334" r="3.33333" fill="#1A202C"/>
<circle cx="253" cy="254.334" r="3.33333" fill="#1A202C"/>
</g>
<circle cx="41.6667" cy="41.6668" r="37.3333" fill="#FF5D31" stroke="#0D243F" stroke-width="8"/>
<path d="M40.8664 54.6667V34.0267H36.2904V30.8267H44.6104V54.6667H40.8664Z" fill="white"/>
<defs>
<clipPath id="clip0_21_657">
<rect x="41.6667" y="41.6667" width="266.667" height="266.667" rx="21.3333" fill="white"/>
</clipPath>
</defs>
</svg>
