<svg width="48" height="42" viewBox="0 0 48 42" fill="none" xmlns="http://www.w3.org/2000/svg">
<path d="M33.075 0.738403H25.9232V11.2267H33.075V0.738403Z" fill="white"/>
<path d="M33.075 15.7565H25.9232V26.2448H33.075V15.7565Z" fill="white"/>
<path d="M33.075 30.7733H25.9232V41.2616H33.075V30.7733Z" fill="white"/>
<path d="M41.4779 0.738403H37.6042V11.2267H41.4779V0.738403Z" fill="white"/>
<path d="M41.4779 15.7565H37.6042V26.2448H41.4779V15.7565Z" fill="white"/>
<path d="M41.4779 30.7733H37.6042V41.2616H41.4779V30.7733Z" fill="white"/>
<path d="M10.7274 13.5564C10.7616 14.7896 11.8054 15.7565 13.0386 15.7565H21.3941V26.2448H13.0374C11.8031 26.2448 10.7604 27.2128 10.7274 28.4448C10.719 28.7474 10.7713 29.0486 10.8813 29.3306C10.9913 29.6126 11.1568 29.8697 11.3679 30.0866C11.579 30.3036 11.8315 30.476 12.1104 30.5936C12.3893 30.7113 12.689 30.7718 12.9917 30.7716H21.3941V41.2634H0V0.736694H21.3941V11.225H12.9917C12.6886 11.2249 12.3886 11.2856 12.1094 11.4036C11.8302 11.5215 11.5776 11.6943 11.3664 11.9118C11.1552 12.1292 10.9899 12.3868 10.8801 12.6693C10.7704 12.9518 10.7184 13.2535 10.7274 13.5564Z" fill="white"/>
<path d="M47.7555 0.738403H46.0077V11.2267H47.7555V0.738403Z" fill="white"/>
<path d="M47.7555 30.7733H46.0077V41.2616H47.7555V30.7733Z" fill="white"/>
<path d="M47.7555 15.7565H46.0077V26.2448H47.7555V15.7565Z" fill="white"/>
</svg>
