<svg width="44" height="43" viewBox="0 0 44 43" fill="none" xmlns="http://www.w3.org/2000/svg">
<path d="M39.7778 10.4835V27.5146C39.7778 32.4212 35.7956 36.4035 30.8889 36.4035H13.1111C12.2934 36.4035 11.5111 36.2968 10.7467 36.0835C9.64446 35.7812 9.28891 34.3768 10.1067 33.559L29.0045 14.6612C29.3956 14.2701 29.9822 14.1812 30.5334 14.2879C31.1022 14.3946 31.7245 14.2346 32.1689 13.8079L36.7378 9.22124C38.4089 7.55013 39.7778 8.10124 39.7778 10.4835Z" fill="#1C5ED3"/>
<path d="M26.6933 13.4172L8.07998 32.0305C7.22664 32.8838 5.80442 32.6705 5.23553 31.6038C4.57775 30.3949 4.2222 28.9905 4.2222 27.5149V10.4838C4.2222 8.10161 5.59109 7.55049 7.2622 9.22161L11.8489 13.8261C12.5422 14.5016 13.68 14.5016 14.3733 13.8261L20.7378 7.44383C21.4311 6.75049 22.5689 6.75049 23.2622 7.44383L26.7111 10.8927C27.3866 11.5861 27.3866 12.7238 26.6933 13.4172Z" fill="#1C5ED3"/>
</svg>
