<svg width="32" height="33" viewBox="0 0 32 33" fill="none" xmlns="http://www.w3.org/2000/svg">
<path d="M21.5867 3.33374H10.4133C5.56 3.33374 2.66667 6.22707 2.66667 11.0804V22.2404C2.66667 27.1071 5.56 30.0004 10.4133 30.0004H21.5733C26.4267 30.0004 29.32 27.1071 29.32 22.2537V11.0804C29.3333 6.22707 26.44 3.33374 21.5867 3.33374ZM10.1733 24.8671C10.1733 25.4137 9.72001 25.8671 9.17334 25.8671C8.62667 25.8671 8.17334 25.4137 8.17334 24.8671V22.1071C8.17334 21.5604 8.62667 21.1071 9.17334 21.1071C9.72001 21.1071 10.1733 21.5604 10.1733 22.1071V24.8671ZM17 24.8671C17 25.4137 16.5467 25.8671 16 25.8671C15.4533 25.8671 15 25.4137 15 24.8671V19.3337C15 18.7871 15.4533 18.3337 16 18.3337C16.5467 18.3337 17 18.7871 17 19.3337V24.8671ZM23.8267 24.8671C23.8267 25.4137 23.3733 25.8671 22.8267 25.8671C22.28 25.8671 21.8267 25.4137 21.8267 24.8671V16.5737C21.8267 16.0271 22.28 15.5737 22.8267 15.5737C23.3733 15.5737 23.8267 16.0271 23.8267 16.5737V24.8671ZM23.8267 12.3604C23.8267 12.9071 23.3733 13.3604 22.8267 13.3604C22.28 13.3604 21.8267 12.9071 21.8267 12.3604V11.0671C18.4267 14.5604 14.1733 17.0271 9.41334 18.2137C9.33334 18.2404 9.25334 18.2404 9.17334 18.2404C8.72001 18.2404 8.32001 17.9337 8.20001 17.4804C8.06667 16.9471 8.38667 16.4004 8.93334 16.2671C13.4267 15.1471 17.4267 12.7871 20.6 9.45374H18.9333C18.3867 9.45374 17.9333 9.00041 17.9333 8.45374C17.9333 7.90707 18.3867 7.45374 18.9333 7.45374H22.84C22.8933 7.45374 22.9333 7.48041 22.9867 7.48041C23.0533 7.49374 23.12 7.49374 23.1867 7.52041C23.2533 7.54707 23.3067 7.58707 23.3733 7.62707C23.4133 7.65374 23.4533 7.66707 23.4933 7.69374C23.5067 7.70707 23.5067 7.72041 23.52 7.72041C23.5733 7.77374 23.6133 7.82707 23.6533 7.88041C23.6933 7.93374 23.7333 7.97374 23.7467 8.02707C23.7733 8.08041 23.7733 8.13374 23.7867 8.20041C23.8 8.26707 23.8267 8.33374 23.8267 8.41374C23.8267 8.42707 23.84 8.44041 23.84 8.45374V12.3604H23.8267Z" fill="white"/>
</svg>
