<svg width="32" height="32" viewBox="0 0 32 32" fill="none" xmlns="http://www.w3.org/2000/svg">
<path d="M6.66666 20C3.71999 20 1.33333 22.3867 1.33333 25.3333C1.33333 26.3333 1.61333 27.28 2.10666 28.08C3.02666 29.6267 4.71999 30.6667 6.66666 30.6667C8.61333 30.6667 10.3067 29.6267 11.2267 28.08C11.72 27.28 12 26.3333 12 25.3333C12 22.3867 9.61333 20 6.66666 20ZM9.29333 24.8933L6.45333 27.52C6.26666 27.6933 6.01333 27.7867 5.77333 27.7867C5.51999 27.7867 5.26666 27.6933 5.06666 27.4933L3.74666 26.1733C3.35999 25.7867 3.35999 25.1467 3.74666 24.76C4.13333 24.3733 4.77333 24.3733 5.15999 24.76L5.79999 25.4L7.93333 23.4267C8.33333 23.0533 8.97333 23.08 9.34666 23.48C9.72 23.88 9.69333 24.52 9.29333 24.8933Z" fill="white"/>
<path d="M28.6667 16.6667H25.3333C23.8667 16.6667 22.6667 17.8667 22.6667 19.3334C22.6667 20.8001 23.8667 22.0001 25.3333 22.0001H28.6667C29.04 22.0001 29.3333 21.7067 29.3333 21.3334V17.3334C29.3333 16.9601 29.04 16.6667 28.6667 16.6667Z" fill="white"/>
<path d="M22.04 7.19988C22.44 7.58655 22.1067 8.18655 21.5467 8.18655L10.5067 8.17322C9.86666 8.17322 9.54666 7.39988 9.99999 6.94655L12.3333 4.59988C14.3067 2.63988 17.4933 2.63988 19.4667 4.59988L21.9867 7.14655C22 7.15988 22.0267 7.18655 22.04 7.19988Z" fill="white"/>
<path d="M29.16 24.8799C28.3467 27.6266 26 29.3333 22.8 29.3333H14.1333C13.6133 29.3333 13.28 28.7599 13.4933 28.2799C13.8933 27.3466 14.1467 26.2933 14.1467 25.3333C14.1467 21.2933 10.8533 17.9999 6.81334 17.9999C5.80001 17.9999 4.81334 18.2133 3.90667 18.6133C3.41334 18.8266 2.81334 18.4933 2.81334 17.9599V15.9999C2.81334 12.3733 5.00001 9.83992 8.40001 9.41325C8.73334 9.35992 9.09334 9.33325 9.46667 9.33325H22.8C23.1467 9.33325 23.48 9.34659 23.8 9.39992C26.4933 9.70659 28.44 11.3466 29.16 13.7866C29.2933 14.2266 28.9733 14.6666 28.52 14.6666H25.4667C22.5733 14.6666 20.28 17.3066 20.9067 20.3066C21.3467 22.4933 23.3733 23.9999 25.6 23.9999H28.52C28.9867 23.9999 29.2933 24.4533 29.16 24.8799Z" fill="white"/>
</svg>
